<?xml version="1.0" encoding="UTF-8" standalone="no"?>
<svg
   xmlns:dc="http://purl.org/dc/elements/1.1/"
   xmlns:cc="http://web.resource.org/cc/"
   xmlns:rdf="http://www.w3.org/1999/02/22-rdf-syntax-ns#"
   xmlns:svg="http://www.w3.org/2000/svg"
   xmlns="http://www.w3.org/2000/svg"
   xmlns:sodipodi="http://sodipodi.sourceforge.net/DTD/sodipodi-0.dtd"
   xmlns:inkscape="http://www.inkscape.org/namespaces/inkscape"
   width="800"
   height="500"
   viewBox="-54px -44px 648px 912px"
   id="svg2"
   sodipodi:version="0.32"
   inkscape:version="0.44"
   sodipodi:docname="CoverLogo.svg"
   sodipodi:docbase="/home/andre/Fun/recipes"
   version="1.0">
  <metadata
     id="metadata998">
    <rdf:RDF>
      <cc:Work
         rdf:about="">
        <dc:format>image/svg+xml</dc:format>
        <dc:type
           rdf:resource="http://purl.org/dc/dcmitype/StillImage" />
      </cc:Work>
    </rdf:RDF>
  </metadata>
  <defs
     id="defs996" />
  <sodipodi:namedview
     inkscape:cy="250"
     inkscape:cx="400"
     inkscape:zoom="0.788"
     inkscape:window-height="581"
     inkscape:window-width="852"
     inkscape:pageshadow="2"
     inkscape:pageopacity="0.0"
     guidetolerance="10.0"
     gridtolerance="10.0"
     objecttolerance="10.0"
     borderopacity="1.0"
     bordercolor="#666666"
     pagecolor="#ffffff"
     id="base"
     inkscape:window-x="0"
     inkscape:window-y="0"
     inkscape:current-layer="svg2"
     height="500px"
     width="800px" />
  <title
     id="title4">generated by pstoedit version:3.33 from CoverLogo.eps</title>
  <path
     style="fill:#cdcdcd;fill-rule:evenodd;stroke-width:0;stroke-linecap:butt;stroke-linejoin:miter;stroke-miterlimit:10;fill-opacity:1;stroke:none"
     d="M 512.09375 239 L 344.40625 387.375 L 361.6875 404.84375 L 512.09375 239 z "
     id="path13" />
  <path
     style="fill:#cdcdcd;fill-rule:evenodd;stroke-width:0;stroke-linecap:butt;stroke-linejoin:bevel;stroke-miterlimit:10;fill-opacity:1"
     d="M 350.03125 199.8125 L 340.375 220.71875 L 342.9375 221.875 L 352.5625 200.96875 L 350.03125 199.8125 z "
     id="path65" />
  <path
     style="fill:#cdcdcd;fill-rule:evenodd;stroke-width:0;stroke-linecap:butt;stroke-linejoin:bevel;stroke-miterlimit:10;fill-opacity:1"
     d="M 398.3125 205.09375 L 396.34375 207.0625 L 412.625 223.34375 L 414.59375 221.34375 L 398.3125 205.09375 z "
     id="path191" />
  <path
     style="fill:#cdcdcd;fill-rule:evenodd;stroke-width:0;stroke-linecap:butt;stroke-linejoin:bevel;stroke-miterlimit:10;fill-opacity:1"
     d="M 400.28125 241.8125 L 384 258.09375 L 386 260.0625 L 402.28125 243.78125 L 400.28125 241.8125 z "
     id="path230" />
  <path
     style="fill:#cdcdcd;fill-rule:evenodd;stroke-width:0;stroke-linecap:butt;stroke-linejoin:bevel;stroke-miterlimit:10;fill-opacity:1"
     d="M 316.15625 161.59375 L 299.875 177.84375 L 301.875 179.84375 L 318.125 163.5625 L 316.15625 161.59375 z "
     id="path243" />
  <path
     style="fill:#cdcdcd;fill-rule:evenodd;stroke-width:0;stroke-linecap:butt;stroke-linejoin:bevel;stroke-miterlimit:10;fill-opacity:1"
     d="M 369.0625 187.40625 L 369.0625 190.21875 L 386.46875 190.21875 L 386.46875 187.40625 L 369.0625 187.40625 z "
     id="path256" />
  <path
     style="fill:#cdcdcd;fill-rule:evenodd;stroke-width:0;stroke-linecap:butt;stroke-linejoin:bevel;stroke-miterlimit:10;fill-opacity:1"
     d="M 100.65625 250.3125 L 27.03125 323.9375 L 33.625 330.53125 L 107.25 256.90625 L 100.65625 250.3125 z "
     id="path397" />
  <path
     style="fill:#cdcdcd;fill-rule:evenodd;stroke-width:0;stroke-linecap:butt;stroke-linejoin:miter;stroke-miterlimit:10;fill-opacity:1"
     d="M 138.0852,314.1391 L 268.5232,429.0101 L 257.6442,439.4431 L 138.0852,314.1391 z "
     id="path39" />
  <path
     style="fill:#cdcdcd;fill-rule:evenodd;stroke-width:0;stroke-linecap:butt;stroke-linejoin:miter;stroke-miterlimit:10;fill-opacity:1"
     d="M 497.34375 34.28125 L 485.625 46 L 626.0625 174.9375 L 497.34375 34.28125 z "
     id="path52" />
  <path
     style="fill:#cdcdcd;fill-rule:evenodd;stroke-width:0;stroke-linecap:butt;stroke-linejoin:miter;stroke-miterlimit:10;fill-opacity:1"
     d="M 347.5625 184.5625 L 255.375 233.65625 L 261.3125 243.46875 L 347.5625 184.5625 z "
     id="path78" />
  <path
     style="fill:#cdcdcd;stroke:none;stroke-width:0.48176199;stroke-linecap:butt;stroke-linejoin:miter;stroke-miterlimit:10;fill-opacity:1"
     d="M 221.7652,239.4321 L 363.6752,412.6231 L 381.8162,396.0531 L 221.7652,239.4321 z "
     id="path30" />
  <path
     style="fill:#cdcdcd;fill-rule:evenodd;stroke-width:0;stroke-linecap:butt;stroke-linejoin:miter;stroke-miterlimit:10;fill-opacity:1"
     d="M 675.96875 71.25 L 596.375 137.53125 L 609.40625 150.5625 L 675.96875 71.25 z "
     id="path91" />
  <path
     style="fill:#cdcdcd;fill-rule:evenodd;stroke-width:0;stroke-linecap:butt;stroke-linejoin:miter;stroke-miterlimit:10;fill-opacity:1"
     d="M 153.03125 331.75 L 86.46875 411.0625 L 166.0625 344.75 L 153.03125 331.75 z "
     id="path128" />
  <path
     style="fill:#cdcdcd;stroke:#e1e1e1;stroke-width:0.224727;stroke-linecap:butt;stroke-linejoin:miter;stroke-miterlimit:10;fill-opacity:1"
     d="M 400.53125 191.90625 L 488.15625 248.71875 L 493.875 238.78125 L 400.53125 191.90625 z "
     id="path169" />
  <path
     style="fill:#cdcdcd;fill-rule:evenodd;stroke-width:0;stroke-linecap:butt;stroke-linejoin:bevel;stroke-miterlimit:10;fill-opacity:1"
     d="M 734.5 149.125 L 660.875 222.75 L 667.5 229.34375 L 741.125 155.71875 L 734.5 149.125 z "
     id="path293" />
  <path
     style="fill:#cdcdcd;fill-rule:evenodd;stroke-width:0;stroke-linecap:butt;stroke-linejoin:bevel;stroke-miterlimit:10;fill-opacity:1"
     d="M 607.9375 156.15625 L 601.34375 162.75 L 663.75 225.15625 L 670.34375 218.5625 L 607.9375 156.15625 z "
     id="path306" />
  <path
     style="fill:#cdcdcd;fill-rule:evenodd;stroke-width:0;stroke-linecap:butt;stroke-linejoin:bevel;stroke-miterlimit:10;fill-opacity:1"
     d="M 588.90625 153.8125 L 515.28125 227.4375 L 521.875 234.03125 L 595.5 160.40625 L 588.90625 153.8125 z "
     id="path319" />
  <path
     style="fill:#cdcdcd;fill-rule:evenodd;stroke-width:0;stroke-linecap:butt;stroke-linejoin:bevel;stroke-miterlimit:10;fill-opacity:1"
     d="M 573.03125 311.53125 L 499.40625 385.15625 L 506 391.75 L 579.625 318.125 L 573.03125 311.53125 z "
     id="path332" />
  <path
     style="fill:#cdcdcd;fill-rule:evenodd;stroke-width:0;stroke-linecap:butt;stroke-linejoin:bevel;stroke-miterlimit:10;fill-opacity:1"
     d="M 518.34375 250.4375 L 511.75 257.03125 L 574.15625 319.4375 L 580.75 312.84375 L 518.34375 250.4375 z "
     id="path345" />
  <path
     style="fill:#cdcdcd;fill-rule:evenodd;stroke-width:0;stroke-linecap:butt;stroke-linejoin:bevel;stroke-miterlimit:10;fill-opacity:1"
     d="M 236 249.375 L 162.375 323 L 168.96875 329.625 L 242.59375 256 L 236 249.375 z "
     id="path358" />
  <path
     style="fill:#cdcdcd;fill-rule:evenodd;stroke-width:0;stroke-linecap:butt;stroke-linejoin:bevel;stroke-miterlimit:10;fill-opacity:1"
     d="M 172.90625 181.75 L 166.3125 188.34375 L 228.71875 250.75 L 235.3125 244.15625 L 172.90625 181.75 z "
     id="path371" />
  <path
     style="fill:#cdcdcd;fill-rule:evenodd;stroke-width:0;stroke-linecap:butt;stroke-linejoin:bevel;stroke-miterlimit:10;fill-opacity:1"
     d="M 99.1875 262.9375 L 92.59375 269.53125 L 155 331.9375 L 161.59375 325.34375 L 99.1875 262.9375 z "
     id="path384" />
  <path
     style="fill:#cdcdcd;fill-opacity:1;fill-rule:evenodd;stroke-width:0;stroke-linecap:butt;stroke-linejoin:bevel;stroke-miterlimit:10"
     d="M 416.96875,164.375 L 400.6875,180.65625 L 402.65625,182.625 L 418.9375,166.34375 L 416.96875,164.375 z "
     id="path204" />
  <g
     id="g8237">
    <path
       id="path8190"
       d="M 172.34375,162.5625 C 158.24575,162.5625 146.81251,174.04375 146.8125,188.21875 C 146.8125,202.39475 158.24575,213.90625 172.34375,213.90625 C 186.44175,213.90625 197.875,202.39475 197.875,188.21875 C 197.875,174.04375 186.44175,162.5625 172.34375,162.5625 z "
       style="fill:#8ecdf4;fill-rule:evenodd;stroke-width:0;stroke-linecap:butt;stroke-linejoin:bevel;stroke-miterlimit:10;fill-opacity:1" />
    <path
       id="path8146"
       d="M 170.65625,163.40625 C 158.41025,163.40625 148.46875,173.40576 148.46875,185.71875 C 148.46875,198.03175 158.41025,208 170.65625,208 C 182.90325,208 192.81251,198.03176 192.8125,185.71875 C 192.8125,173.40575 182.90325,163.40625 170.65625,163.40625 z "
       style="fill:#aee0ff;stroke:none;stroke-width:1.71899998;stroke-linecap:butt;stroke-linejoin:bevel;stroke-miterlimit:10;fill-opacity:1" />
    <path
       id="path8023"
       d="M 159.75,171.8125 C 159.11,171.8125 158.5625,172.39876 158.5625,173.09375 C 158.5625,173.78875 159.11,174.34375 159.75,174.34375 C 160.391,174.34375 160.90625,173.78876 160.90625,173.09375 C 160.90625,172.39875 160.391,171.8125 159.75,171.8125 z "
       style="fill:white;fill-rule:evenodd;stroke-width:0;stroke-linecap:butt;stroke-linejoin:bevel;stroke-miterlimit:10;fill-opacity:1;stroke:none" />
  </g>
  <g
     id="g8067">
    <path
       id="path8049"
       d="M 96.3125,221.375 C 75.2965,221.375 58.249999,238.492 58.25,259.625 C 58.25,280.757 75.296498,297.90624 96.3125,297.90625 C 117.3275,297.90625 134.37501,280.757 134.375,259.625 C 134.375,238.492 117.3275,221.375 96.3125,221.375 z "
       style="fill:#b00000;fill-rule:evenodd;stroke-width:0;stroke-linecap:butt;stroke-linejoin:bevel;stroke-miterlimit:10;stroke:none;fill-opacity:1" />
    <path
       id="path8039"
       d="M 93.78125,222.625 C 75.51925,222.625 60.718748,237.51201 60.71875,255.875 C 60.71875,274.238 75.519246,289.12499 93.78125,289.125 C 112.04325,289.125 126.875,274.23801 126.875,255.875 C 126.875,237.512 112.04325,222.62501 93.78125,222.625 z "
       style="fill:#e10000;stroke:none;stroke-width:2.55754995;stroke-linecap:butt;stroke-linejoin:miter;stroke-miterlimit:10;fill-opacity:1" />
    <path
       id="path8009"
       d="M 77.53125,235.15625 C 76.57425,235.15625 75.78125,236.0275 75.78125,237.0625 C 75.78125,238.0975 76.574249,238.9375 77.53125,238.9375 C 78.48825,238.9375 79.249998,238.0975 79.25,237.0625 C 79.25,236.0275 78.488249,235.15625 77.53125,235.15625 z "
       style="fill:white;fill-rule:evenodd;stroke-width:0;stroke-linecap:butt;stroke-linejoin:bevel;stroke-miterlimit:10;fill-opacity:1;stroke:none" />
  </g>
  <g
     id="g8242">
    <path
       id="path8186"
       d="M 41.65625,299.78125 C 27.55925,299.78125 16.125,311.26251 16.125,325.4375 C 16.125,339.6135 27.55925,351.09376 41.65625,351.09375 C 55.75425,351.09375 67.1875,339.61351 67.1875,325.4375 C 67.1875,311.2625 55.75425,299.78126 41.65625,299.78125 z "
       style="fill:#8ecdf4;fill-rule:evenodd;stroke-width:0;stroke-linecap:butt;stroke-linejoin:bevel;stroke-miterlimit:10;fill-opacity:1" />
    <path
       id="path8138"
       d="M 38.84375,300.625 C 27.127867,301.22255 17.8125,310.97899 17.8125,322.90625 C 17.8125,335.21925 27.72275,345.21875 39.96875,345.21875 C 52.21475,345.21875 62.156251,335.21924 62.15625,322.90625 C 62.15625,310.59425 52.21475,300.62499 39.96875,300.625 C 39.586062,300.625 39.221682,300.60572 38.84375,300.625 z "
       style="fill:#aee0ff;stroke:none;stroke-width:1.71899998;stroke-linecap:butt;stroke-linejoin:bevel;stroke-miterlimit:10;fill-opacity:1" />
    <path
       id="path8003"
       d="M 29.0625,309.03125 C 28.4215,309.03125 27.906251,309.58624 27.90625,310.28125 C 27.90625,310.97625 28.421499,311.5625 29.0625,311.5625 C 29.7025,311.5625 30.21875,310.97624 30.21875,310.28125 C 30.21875,309.58625 29.702499,309.03124 29.0625,309.03125 z "
       style="fill:white;fill-rule:evenodd;stroke-width:0;stroke-linecap:butt;stroke-linejoin:bevel;stroke-miterlimit:10;fill-opacity:1;stroke:none" />
  </g>
  <g
     id="g8115">
    <path
       id="path506"
       d="M 164.53125,296.03125 C 143.51525,296.03125 126.5,313.1795 126.5,334.3125 C 126.5,355.4445 143.51525,372.56249 164.53125,372.5625 C 185.54725,372.5625 202.59376,355.4445 202.59375,334.3125 C 202.59375,313.1795 185.54725,296.03124 164.53125,296.03125 z "
       style="fill:#404040;fill-rule:evenodd;stroke-width:0;stroke-linecap:butt;stroke-linejoin:bevel;stroke-miterlimit:10;fill-opacity:1" />
    <path
       id="path518"
       d="M 162.03125,297.28125 C 143.77025,297.28125 128.96875,312.16824 128.96875,330.53125 C 128.96875,348.89425 143.77025,363.78124 162.03125,363.78125 C 180.29325,363.78125 195.09375,348.89424 195.09375,330.53125 C 195.09375,312.16825 180.29325,297.28124 162.03125,297.28125 z "
       style="fill:gray;stroke:none;stroke-width:5.51130009;stroke-linecap:butt;stroke-linejoin:miter;stroke-miterlimit:10;fill-opacity:1" />
    <path
       id="path8001"
       d="M 145.75,309.84375 C 144.793,309.84375 144.03126,310.68275 144.03125,311.71875 C 144.03125,312.75375 144.793,313.59375 145.75,313.59375 C 146.707,313.59375 147.5,312.75375 147.5,311.71875 C 147.5,310.68275 146.707,309.84375 145.75,309.84375 z "
       style="fill:white;fill-rule:evenodd;stroke-width:0;stroke-linecap:butt;stroke-linejoin:bevel;stroke-miterlimit:10;fill-opacity:1;stroke:none" />
  </g>
  <g
     id="g8247">
    <path
       id="path8182"
       d="M 89.78125,392.3125 C 79.27325,392.3125 70.749998,400.87148 70.75,411.4375 C 70.75,422.0045 79.273247,430.56249 89.78125,430.5625 C 100.28925,430.5625 108.8125,422.00448 108.8125,411.4375 C 108.8125,400.8715 100.28925,392.31251 89.78125,392.3125 z "
       style="fill:#8ecdf4;fill-rule:evenodd;stroke-width:0;stroke-linecap:butt;stroke-linejoin:bevel;stroke-miterlimit:10;fill-opacity:1" />
    <path
       id="path8134"
       d="M 88.53125,392.9375 C 79.40225,392.9375 71.999997,400.38351 72,409.5625 C 72,418.7425 79.402249,426.18751 88.53125,426.1875 C 97.65925,426.1875 105.0625,418.74251 105.0625,409.5625 C 105.0625,400.3835 97.659249,392.93751 88.53125,392.9375 z "
       style="fill:#aee0ff;stroke:none;stroke-width:1.71899998;stroke-linecap:butt;stroke-linejoin:bevel;stroke-miterlimit:10;fill-opacity:1" />
    <path
       id="path7995"
       d="M 80.375,399.21875 C 79.898,399.21875 79.531247,399.64126 79.53125,400.15625 C 79.53125,400.67225 79.898,401.09375 80.375,401.09375 C 80.851,401.09375 81.250003,400.67226 81.25,400.15625 C 81.25,399.64125 80.851,399.21875 80.375,399.21875 z "
       style="fill:white;fill-rule:evenodd;stroke-width:0;stroke-linecap:butt;stroke-linejoin:bevel;stroke-miterlimit:10;fill-opacity:1;stroke:none" />
  </g>
  <g
     id="g8222">
    <path
       id="path866"
       d="M 265,403.40625 C 246.972,403.40625 232.375,418.08975 232.375,436.21875 C 232.375,454.34675 246.972,469.0625 265,469.0625 C 283.027,469.0625 297.65624,454.34675 297.65625,436.21875 C 297.65625,418.08975 283.027,403.40626 265,403.40625 z "
       style="fill:#8ecdf4;fill-rule:evenodd;stroke-width:0;stroke-linecap:butt;stroke-linejoin:bevel;stroke-miterlimit:10;fill-opacity:1" />
    <path
       id="path782"
       d="M 262.84375,404.46875 C 247.17875,404.46875 234.5,417.24999 234.5,433 C 234.5,448.75 247.17876,461.53125 262.84375,461.53125 C 278.50775,461.53125 291.21875,448.74999 291.21875,433 C 291.21875,417.25 278.50776,404.46875 262.84375,404.46875 z "
       style="fill:#aee0ff;stroke:none;stroke-width:1.71899998;stroke-linecap:butt;stroke-linejoin:bevel;stroke-miterlimit:10;fill-opacity:1" />
    <path
       id="path120"
       d="M 248.90625,415.25 C 248.08525,415.25 247.40626,415.95275 247.40625,416.84375 C 247.40625,417.73375 248.08526,418.46875 248.90625,418.46875 C 249.72625,418.46875 250.375,417.73375 250.375,416.84375 C 250.375,415.95275 249.72626,415.24999 248.90625,415.25 z "
       style="fill:white;fill-rule:evenodd;stroke-width:0;stroke-linecap:butt;stroke-linejoin:bevel;stroke-miterlimit:10;fill-opacity:1;stroke:none" />
  </g>
  <g
     id="g8268"
     transform="translate(75.27249,-79.3115)">
    <path
       style="fill:#404040;fill-opacity:1;fill-rule:evenodd;stroke-width:0;stroke-linecap:butt;stroke-linejoin:bevel;stroke-miterlimit:10"
       d="M 164.53125,296.03125 C 143.51525,296.03125 126.5,313.1795 126.5,334.3125 C 126.5,355.4445 143.51525,372.56249 164.53125,372.5625 C 185.54725,372.5625 202.59376,355.4445 202.59375,334.3125 C 202.59375,313.1795 185.54725,296.03124 164.53125,296.03125 z "
       id="path8270" />
    <path
       style="fill:gray;fill-opacity:1;stroke:none;stroke-width:5.51130009;stroke-linecap:butt;stroke-linejoin:miter;stroke-miterlimit:10"
       d="M 162.03125,297.28125 C 143.77025,297.28125 128.96875,312.16824 128.96875,330.53125 C 128.96875,348.89425 143.77025,363.78124 162.03125,363.78125 C 180.29325,363.78125 195.09375,348.89424 195.09375,330.53125 C 195.09375,312.16825 180.29325,297.28124 162.03125,297.28125 z "
       id="path8272" />
    <path
       style="fill:white;fill-opacity:1;fill-rule:evenodd;stroke:none;stroke-width:0;stroke-linecap:butt;stroke-linejoin:bevel;stroke-miterlimit:10"
       d="M 145.75,309.84375 C 144.793,309.84375 144.03126,310.68275 144.03125,311.71875 C 144.03125,312.75375 144.793,313.59375 145.75,313.59375 C 146.707,313.59375 147.5,312.75375 147.5,311.71875 C 147.5,310.68275 146.707,309.84375 145.75,309.84375 z "
       id="path8274" />
  </g>
  <g
     id="g8260"
     transform="translate(38.18702,37.81984)">
    <path
       style="fill:#8ecdf4;fill-opacity:1;fill-rule:evenodd;stroke-width:0;stroke-linecap:butt;stroke-linejoin:bevel;stroke-miterlimit:10"
       d="M 342.3125,214.4375 C 335.7625,214.4375 330.43749,219.785 330.4375,226.375 C 330.4375,232.965 335.76249,238.3125 342.3125,238.3125 C 348.8635,238.3125 354.18751,232.965 354.1875,226.375 C 354.1875,219.785 348.86349,214.4375 342.3125,214.4375 z "
       id="path8262" />
    <path
       style="fill:#aee0ff;fill-opacity:1;stroke:none;stroke-width:1.71899998;stroke-linecap:butt;stroke-linejoin:bevel;stroke-miterlimit:10"
       d="M 341.53125,214.8125 C 335.83625,214.8125 331.21875,219.4655 331.21875,225.1875 C 331.21875,230.9105 335.83624,235.5625 341.53125,235.5625 C 347.22725,235.5625 351.84375,230.9105 351.84375,225.1875 C 351.84375,219.4655 347.22724,214.8125 341.53125,214.8125 z "
       id="path8264" />
    <path
       style="fill:white;fill-opacity:1;fill-rule:evenodd;stroke:none;stroke-width:0;stroke-linecap:butt;stroke-linejoin:bevel;stroke-miterlimit:10"
       d="M 336.46875,218.75 C 336.17175,218.75 335.90625,218.9925 335.90625,219.3125 C 335.90625,219.6325 336.17174,219.90625 336.46875,219.90625 C 336.76575,219.90625 336.99999,219.6325 337,219.3125 C 337,218.9925 336.76574,218.75 336.46875,218.75 z "
       id="path8266" />
  </g>
  <g
     id="g8252"
     transform="translate(-45.89786,-44.42913)">
    <path
       style="fill:#8ecdf4;fill-opacity:1;fill-rule:evenodd;stroke-width:0;stroke-linecap:butt;stroke-linejoin:bevel;stroke-miterlimit:10"
       d="M 342.3125,214.4375 C 335.7625,214.4375 330.43749,219.785 330.4375,226.375 C 330.4375,232.965 335.76249,238.3125 342.3125,238.3125 C 348.8635,238.3125 354.18751,232.965 354.1875,226.375 C 354.1875,219.785 348.86349,214.4375 342.3125,214.4375 z "
       id="path8254" />
    <path
       style="fill:#aee0ff;fill-opacity:1;stroke:none;stroke-width:1.71899998;stroke-linecap:butt;stroke-linejoin:bevel;stroke-miterlimit:10"
       d="M 341.53125,214.8125 C 335.83625,214.8125 331.21875,219.4655 331.21875,225.1875 C 331.21875,230.9105 335.83624,235.5625 341.53125,235.5625 C 347.22725,235.5625 351.84375,230.9105 351.84375,225.1875 C 351.84375,219.4655 347.22724,214.8125 341.53125,214.8125 z "
       id="path8256" />
    <path
       style="fill:white;fill-opacity:1;fill-rule:evenodd;stroke:none;stroke-width:0;stroke-linecap:butt;stroke-linejoin:bevel;stroke-miterlimit:10"
       d="M 336.46875,218.75 C 336.17175,218.75 335.90625,218.9925 335.90625,219.3125 C 335.90625,219.6325 336.17174,219.90625 336.46875,219.90625 C 336.76575,219.90625 336.99999,219.6325 337,219.3125 C 337,218.9925 336.76574,218.75 336.46875,218.75 z "
       id="path8258" />
  </g>
  <g
     id="g8072">
    <path
       id="path8051"
       d="M 411.53125,218.5625 C 401.78125,218.5625 393.875,226.5085 393.875,236.3125 C 393.875,242.44062 396.98975,247.8395 401.6875,251.03125 C 402.15728,251.35042 402.62455,251.66407 403.125,251.9375 C 405.62726,253.30463 408.48437,254.09375 411.53125,254.09375 C 421.28125,254.09375 429.21874,246.1175 429.21875,236.3125 C 429.21875,226.5085 421.28125,218.5625 411.53125,218.5625 z "
       style="fill:#b00000;fill-rule:evenodd;stroke-width:0;stroke-linecap:butt;stroke-linejoin:bevel;stroke-miterlimit:10;stroke:none;fill-opacity:1" />
    <path
       id="path8041"
       d="M 410.375,219.15625 C 407.19763,219.15625 404.23016,220.12136 401.78125,221.78125 C 400.96495,222.33455 400.22545,222.95958 399.53125,223.65625 C 396.75444,226.44294 395.03125,230.303 395.03125,234.5625 C 395.03125,243.0825 401.902,249.99999 410.375,250 C 418.848,250 425.71875,243.0825 425.71875,234.5625 C 425.71875,226.0435 418.848,219.15624 410.375,219.15625 z "
       style="fill:#e10000;stroke:none;stroke-width:2.55754995;stroke-linecap:butt;stroke-linejoin:miter;stroke-miterlimit:10;fill-opacity:1" />
  </g>
  <g
     id="g8217">
    <path
       id="path8198"
       d="M 505.59375,21.90625 C 487.56675,21.90625 472.96874,36.589749 472.96875,54.71875 C 472.96875,72.84775 487.56677,87.562503 505.59375,87.5625 C 523.62175,87.5625 538.25,72.847749 538.25,54.71875 C 538.25,36.58975 523.62177,21.906249 505.59375,21.90625 z "
       style="fill:#8ecdf4;fill-rule:evenodd;stroke-width:0;stroke-linecap:butt;stroke-linejoin:bevel;stroke-miterlimit:10;fill-opacity:1" />
    <path
       id="path8154"
       d="M 503.4375,22.96875 C 487.7735,22.96875 475.09374,35.749998 475.09375,51.5 C 475.09375,67.25 487.77349,80.031249 503.4375,80.03125 C 519.1015,80.03125 531.81249,67.249998 531.8125,51.5 C 531.8125,35.75 519.10149,22.96875 503.4375,22.96875 z "
       style="fill:#aee0ff;stroke:none;stroke-width:1.71899998;stroke-linecap:butt;stroke-linejoin:bevel;stroke-miterlimit:10;fill-opacity:1" />
    <path
       id="path8035"
       d="M 489.5,33.75 C 488.68,33.75 487.99999,34.45375 488,35.34375 C 488,36.23475 488.67999,36.968752 489.5,36.96875 C 490.321,36.96875 490.96875,36.23475 490.96875,35.34375 C 490.96875,34.45375 490.32099,33.749999 489.5,33.75 z "
       style="fill:white;fill-rule:evenodd;stroke-width:0;stroke-linecap:butt;stroke-linejoin:bevel;stroke-miterlimit:10;fill-opacity:1;stroke:none" />
  </g>
  <g
     id="g8212">
    <path
       id="path8196"
       d="M 674.84375,57.8125 C 664.72975,57.8125 656.53124,66.046749 656.53125,76.21875 C 656.53125,86.39075 664.72973,94.656249 674.84375,94.65625 C 684.95675,94.65625 693.15625,86.390749 693.15625,76.21875 C 693.15625,66.04675 684.95673,57.812502 674.84375,57.8125 z "
       style="fill:#8ecdf4;fill-rule:evenodd;stroke-width:0;stroke-linecap:butt;stroke-linejoin:bevel;stroke-miterlimit:10;fill-opacity:1" />
    <path
       id="path8152"
       d="M 673.65625,58.40625 C 667.0645,58.40625 661.38464,62.444938 658.96875,68.1875 C 658.76743,68.666047 658.59249,69.155255 658.4375,69.65625 C 657.97252,71.159235 657.71875,72.7495 657.71875,74.40625 C 657.71875,83.24225 664.86722,90.406253 673.65625,90.40625 C 682.44525,90.40625 689.56247,83.242253 689.5625,74.40625 C 689.5625,65.57025 682.44522,58.406249 673.65625,58.40625 z "
       style="fill:#aee0ff;stroke:none;stroke-width:1.71899998;stroke-linecap:butt;stroke-linejoin:bevel;stroke-miterlimit:10;fill-opacity:1" />
    <path
       id="path8033"
       d="M 665.8125,64.46875 C 665.3515,64.46875 664.96875,64.879003 664.96875,65.375 C 664.96875,65.871 665.35151,66.281253 665.8125,66.28125 C 666.2735,66.28125 666.65626,65.871003 666.65625,65.375 C 666.65625,64.879 666.27351,64.468753 665.8125,64.46875 z "
       style="fill:white;fill-rule:evenodd;stroke-width:0;stroke-linecap:butt;stroke-linejoin:bevel;stroke-miterlimit:10;fill-opacity:1;stroke:none" />
  </g>
  <g
     id="g8105">
    <path
       id="path8103"
       d="M 603.3125,116.4375 C 582.2965,116.4375 565.25,133.58575 565.25,154.71875 C 565.25,175.85175 582.29648,192.96875 603.3125,192.96875 C 624.3275,192.96875 641.37499,175.85175 641.375,154.71875 C 641.375,133.58575 624.32748,116.4375 603.3125,116.4375 z "
       style="fill:#404040;fill-rule:evenodd;stroke-width:0;stroke-linecap:butt;stroke-linejoin:bevel;stroke-miterlimit:10;fill-opacity:1" />
    <path
       id="path8091"
       d="M 600.78125,117.6875 C 582.51925,117.6875 567.71873,132.5745 567.71875,150.9375 C 567.71875,159.54516 570.97544,167.40768 576.3125,173.3125 C 576.6683,173.70615 577.03227,174.09268 577.40625,174.46875 C 583.39,180.48588 591.65025,184.1875 600.78125,184.1875 C 619.04325,184.1875 633.87502,169.3005 633.875,150.9375 C 633.875,132.5745 619.04325,117.6875 600.78125,117.6875 z "
       style="fill:gray;stroke:none;stroke-width:5.51130009;stroke-linecap:butt;stroke-linejoin:miter;stroke-miterlimit:10;fill-opacity:1" />
    <path
       id="path8031"
       d="M 584.53125,130.25 C 583.57425,130.25 582.78124,131.08999 582.78125,132.125 C 582.78125,133.16 583.57426,134 584.53125,134 C 585.48825,134 586.25,133.15999 586.25,132.125 C 586.25,131.09 585.48826,130.25001 584.53125,130.25 z "
       style="fill:white;fill-rule:evenodd;stroke-width:0;stroke-linecap:butt;stroke-linejoin:bevel;stroke-miterlimit:10;fill-opacity:1;stroke:none" />
  </g>
  <g
     id="g8207">
    <path
       id="path8194"
       d="M 743.65625,123.90625 C 729.55925,123.90625 718.12499,135.41776 718.125,149.59375 C 718.125,163.76975 729.55927,175.25001 743.65625,175.25 C 757.75425,175.25 769.1875,163.76976 769.1875,149.59375 C 769.1875,135.41775 757.75427,123.90625 743.65625,123.90625 z "
       style="fill:#8ecdf4;fill-rule:evenodd;stroke-width:0;stroke-linecap:butt;stroke-linejoin:bevel;stroke-miterlimit:10;fill-opacity:1" />
    <path
       id="path8150"
       d="M 741.96875,124.75 C 729.72275,124.75 719.78124,134.7495 719.78125,147.0625 C 719.78125,153.60325 722.59907,159.48262 727.0625,163.5625 C 727.32505,163.80249 727.56993,164.02273 727.84375,164.25 C 731.67719,167.43175 736.61114,169.34375 741.96875,169.34375 C 754.21475,169.34375 764.125,159.3745 764.125,147.0625 C 764.125,134.7495 754.21478,124.75 741.96875,124.75 z "
       style="fill:#aee0ff;stroke:none;stroke-width:1.71899998;stroke-linecap:butt;stroke-linejoin:bevel;stroke-miterlimit:10;fill-opacity:1" />
    <path
       id="path8029"
       d="M 731.03125,133.15625 C 730.39025,133.15625 729.875,133.7415 729.875,134.4375 C 729.875,135.1325 730.39025,135.6875 731.03125,135.6875 C 731.67225,135.6875 732.21874,135.1325 732.21875,134.4375 C 732.21875,133.7415 731.67225,133.15625 731.03125,133.15625 z "
       style="fill:white;fill-rule:evenodd;stroke-width:0;stroke-linecap:butt;stroke-linejoin:bevel;stroke-miterlimit:10;fill-opacity:1;stroke:none" />
  </g>
  <g
     id="g8076">
    <path
       id="path8055"
       d="M 329.59375,138.78125 C 319.84375,138.78125 311.9375,146.72725 311.9375,156.53125 C 311.9375,166.33625 319.84375,174.28125 329.59375,174.28125 C 339.34375,174.28125 347.24999,166.33625 347.25,156.53125 C 347.25,146.72725 339.34375,138.78125 329.59375,138.78125 z "
       style="fill:#b00000;fill-rule:evenodd;stroke-width:0;stroke-linecap:butt;stroke-linejoin:bevel;stroke-miterlimit:10;stroke:none;fill-opacity:1" />
    <path
       id="path8045"
       d="M 328.40625,139.34375 C 319.93325,139.34375 313.06249,146.26225 313.0625,154.78125 C 313.0625,163.30125 319.93325,170.21876 328.40625,170.21875 C 336.87925,170.21875 343.75,163.30125 343.75,154.78125 C 343.75,146.26225 336.87925,139.34375 328.40625,139.34375 z "
       style="fill:#e10000;stroke:none;stroke-width:2.55754995;stroke-linecap:butt;stroke-linejoin:miter;stroke-miterlimit:10;fill-opacity:1" />
    <path
       id="path8027"
       d="M 320.875,145.1875 C 320.434,145.1875 320.06251,145.55025 320.0625,146.03125 C 320.0625,146.51125 320.43399,146.90624 320.875,146.90625 C 321.317,146.90625 321.65625,146.51125 321.65625,146.03125 C 321.65625,145.55025 321.31699,145.1875 320.875,145.1875 z "
       style="fill:white;fill-rule:evenodd;stroke-width:0;stroke-linecap:butt;stroke-linejoin:bevel;stroke-miterlimit:10;fill-opacity:1;stroke:none" />
  </g>
  <g
     id="g8232">
    <path
       id="path8192"
       d="M 420.59375,146.90625 C 414.04275,146.90625 408.71876,152.25375 408.71875,158.84375 C 408.71875,165.43375 414.04275,170.78125 420.59375,170.78125 C 427.14475,170.78125 432.46875,165.43375 432.46875,158.84375 C 432.46875,152.25375 427.14475,146.90625 420.59375,146.90625 z "
       style="fill:#8ecdf4;fill-rule:evenodd;stroke-width:0;stroke-linecap:butt;stroke-linejoin:bevel;stroke-miterlimit:10;fill-opacity:1" />
    <path
       id="path8148"
       d="M 419.8125,147.3125 C 418.7445,147.3125 417.71881,147.47822 416.75,147.78125 C 413.52072,148.78693 410.97302,151.32128 409.96875,154.5625 C 409.96585,154.57179 409.97163,154.58445 409.96875,154.59375 C 409.87216,154.90873 409.78541,155.23538 409.71875,155.5625 C 409.7167,155.57241 409.72077,155.58383 409.71875,155.59375 C 409.65304,155.92114 409.59666,156.25585 409.5625,156.59375 C 409.56143,156.60406 409.56354,156.61468 409.5625,156.625 C 409.52931,156.9633 409.5,157.30905 409.5,157.65625 C 409.5,159.08675 409.7907,160.44662 410.3125,161.6875 C 410.31621,161.6964 410.30876,161.70987 410.3125,161.71875 C 410.44009,162.01988 410.5957,162.30798 410.75,162.59375 C 410.75442,162.60198 410.74556,162.61678 410.75,162.625 C 411.38363,163.79122 412.23825,164.8156 413.25,165.65625 C 413.75934,166.07893 414.32174,166.46191 414.90625,166.78125 C 415.19851,166.94092 415.50404,167.08753 415.8125,167.21875 C 417.0463,167.74437 418.3885,168.03125 419.8125,168.03125 C 420.16844,168.03125 420.52834,168.00423 420.875,167.96875 C 421.5683,167.89791 422.22921,167.76455 422.875,167.5625 C 423.52081,167.36014 424.13427,167.10102 424.71875,166.78125 C 425.30321,166.46191 425.8657,166.07893 426.375,165.65625 C 427.90298,164.38673 429.05358,162.69817 429.65625,160.75 C 429.95756,159.77637 430.125,158.72912 430.125,157.65625 C 430.125,153.72169 427.93326,150.31862 424.71875,148.5625 C 424.13427,148.24445 423.52081,147.98239 422.875,147.78125 C 421.90631,147.47822 420.88031,147.3125 419.8125,147.3125 z "
       style="fill:#aee0ff;stroke:none;stroke-width:1.71899998;stroke-linecap:butt;stroke-linejoin:bevel;stroke-miterlimit:10;fill-opacity:1" />
    <path
       id="path8025"
       d="M 414.75,151.21875 C 414.454,151.21875 414.18749,151.4915 414.1875,151.8125 C 414.1875,152.1325 414.45399,152.375 414.75,152.375 C 415.047,152.375 415.28124,152.1325 415.28125,151.8125 C 415.28125,151.4915 415.04699,151.21875 414.75,151.21875 z "
       style="fill:white;fill-rule:evenodd;stroke-width:0;stroke-linecap:butt;stroke-linejoin:bevel;stroke-miterlimit:10;fill-opacity:1;stroke:none" />
  </g>
  <g
     id="g8120">
    <path
       id="path217"
       d="M 334.53125 163.375 L 332.5625 165.375 L 348.84375 181.625 L 350.8125 179.65625 L 334.53125 163.375 z "
       style="fill:gray;fill-rule:evenodd;stroke-width:0;stroke-linecap:butt;stroke-linejoin:bevel;stroke-miterlimit:10;fill-opacity:1" />
    <path
       id="path8101"
       d="M 358.09375,172.15625 C 348.34375,172.15625 340.4375,180.10124 340.4375,189.90625 C 340.4375,199.71125 348.34375,207.6875 358.09375,207.6875 C 367.84375,207.6875 375.74999,199.71124 375.75,189.90625 C 375.75,180.10125 367.84375,172.15625 358.09375,172.15625 z "
       style="fill:#404040;fill-rule:evenodd;stroke-width:0;stroke-linecap:butt;stroke-linejoin:bevel;stroke-miterlimit:10;fill-opacity:1" />
    <path
       id="path8089"
       d="M 356.90625,172.75 C 348.43325,172.75 341.56249,179.63625 341.5625,188.15625 C 341.5625,196.67525 348.43325,203.59375 356.90625,203.59375 C 365.37925,203.59375 372.25,196.67525 372.25,188.15625 C 372.25,179.63625 365.37925,172.75 356.90625,172.75 z "
       style="fill:gray;stroke:none;stroke-width:5.51130009;stroke-linecap:butt;stroke-linejoin:miter;stroke-miterlimit:10;fill-opacity:1" />
    <path
       id="path8019"
       d="M 349.375,178.5625 C 348.934,178.5625 348.56251,178.9575 348.5625,179.4375 C 348.5625,179.9185 348.93399,180.3125 349.375,180.3125 C 349.817,180.3125 350.1875,179.9185 350.1875,179.4375 C 350.1875,178.9575 349.81699,178.5625 349.375,178.5625 z "
       style="fill:white;fill-rule:evenodd;stroke-width:0;stroke-linecap:butt;stroke-linejoin:bevel;stroke-miterlimit:10;fill-opacity:1;stroke:none" />
  </g>
  <g
     id="g8294">
    <path
       id="path8099"
       d="M 399.875,173.59375 C 394.39063,173.59375 389.48967,176.11559 386.25,180.0625 C 385.89004,180.50105 385.56743,180.96512 385.25,181.4375 C 383.34541,184.27177 382.21875,187.66688 382.21875,191.34375 C 382.21875,201.14775 390.125,209.09375 399.875,209.09375 C 409.625,209.09375 417.53124,201.14775 417.53125,191.34375 C 417.53125,181.53875 409.625,173.59375 399.875,173.59375 z "
       style="fill:#404040;fill-opacity:1;fill-rule:evenodd;stroke-width:0;stroke-linecap:butt;stroke-linejoin:bevel;stroke-miterlimit:10" />
    <path
       id="path8087"
       d="M 398.71875,174.15625 C 397.13006,174.15625 395.59757,174.42408 394.15625,174.875 C 393.67581,175.02531 393.20892,175.17977 392.75,175.375 C 389.53757,176.74164 386.87242,179.18917 385.21875,182.25 C 384.98251,182.68726 384.75664,183.13227 384.5625,183.59375 C 383.78595,185.43969 383.375,187.46375 383.375,189.59375 C 383.375,190.65863 383.48307,191.71451 383.6875,192.71875 C 383.78971,193.22087 383.91304,193.70442 384.0625,194.1875 C 386.0055,200.46753 391.83444,205.03125 398.71875,205.03125 C 407.19175,205.03125 414.0625,198.11275 414.0625,189.59375 C 414.0625,181.07375 407.19175,174.15625 398.71875,174.15625 z "
       style="fill:gray;fill-opacity:1;stroke:none;stroke-width:5.51130009;stroke-linecap:butt;stroke-linejoin:miter;stroke-miterlimit:10" />
    <path
       id="path8017"
       d="M 391.15625,180 C 391.046,180 390.9398,180.01834 390.84375,180.0625 C 390.7477,180.10666 390.66669,180.17112 390.59375,180.25 C 390.44788,180.40775 390.34375,180.635 390.34375,180.875 C 390.34375,181.356 390.71524,181.75 391.15625,181.75 C 391.59825,181.75 391.96875,181.35601 391.96875,180.875 C 391.96875,180.395 391.59824,180.00001 391.15625,180 z "
       style="fill:white;fill-opacity:1;fill-rule:evenodd;stroke:none;stroke-width:0;stroke-linecap:butt;stroke-linejoin:bevel;stroke-miterlimit:10" />
  </g>
  <g
     id="g8062">
    <path
       id="path8053"
       d="M 670.4375,185.5 C 650.07825,185.5 633.4258,201.59435 632.40625,221.8125 C 632.37336,222.4647 632.375,223.12084 632.375,223.78125 C 632.375,244.91425 649.4215,262.0625 670.4375,262.0625 C 691.4525,262.0625 708.50002,244.91425 708.5,223.78125 C 708.5,202.64825 691.4525,185.5 670.4375,185.5 z "
       style="fill:#b00000;fill-rule:evenodd;stroke-width:0;stroke-linecap:butt;stroke-linejoin:bevel;stroke-miterlimit:10;stroke:none;fill-opacity:1" />
    <path
       id="path8043"
       d="M 667.90625,186.78125 C 649.64425,186.78125 634.84372,201.66824 634.84375,220.03125 C 634.84375,232.6565 641.84874,243.61929 652.15625,249.25 C 652.62477,249.50594 653.08064,249.76652 653.5625,250 C 657.8992,252.10133 662.77006,253.28125 667.90625,253.28125 C 686.16825,253.28125 700.96873,238.39524 700.96875,220.03125 C 700.96875,201.66825 686.16824,186.78125 667.90625,186.78125 z "
       style="fill:#e10000;stroke:none;stroke-width:2.55754995;stroke-linecap:butt;stroke-linejoin:miter;stroke-miterlimit:10;fill-opacity:1" />
    <path
       id="path8015"
       d="M 651.625,199.3125 C 650.668,199.3125 649.90627,200.1525 649.90625,201.1875 C 649.90625,202.2225 650.66797,203.0625 651.625,203.0625 C 652.582,203.0625 653.37502,202.2225 653.375,201.1875 C 653.375,200.1525 652.58197,199.3125 651.625,199.3125 z "
       style="fill:white;fill-rule:evenodd;stroke-width:0;stroke-linecap:butt;stroke-linejoin:bevel;stroke-miterlimit:10;fill-opacity:1;stroke:none" />
  </g>
  <g
     id="g8227">
    <path
       id="path8188"
       d="M 342.3125,214.4375 C 335.7625,214.4375 330.43749,219.785 330.4375,226.375 C 330.4375,232.965 335.76249,238.3125 342.3125,238.3125 C 348.8635,238.3125 354.18751,232.965 354.1875,226.375 C 354.1875,219.785 348.86349,214.4375 342.3125,214.4375 z "
       style="fill:#8ecdf4;fill-rule:evenodd;stroke-width:0;stroke-linecap:butt;stroke-linejoin:bevel;stroke-miterlimit:10;fill-opacity:1" />
    <path
       id="path8142"
       d="M 341.53125,214.8125 C 335.83625,214.8125 331.21875,219.4655 331.21875,225.1875 C 331.21875,230.9105 335.83624,235.5625 341.53125,235.5625 C 347.22725,235.5625 351.84375,230.9105 351.84375,225.1875 C 351.84375,219.4655 347.22724,214.8125 341.53125,214.8125 z "
       style="fill:#aee0ff;stroke:none;stroke-width:1.71899998;stroke-linecap:butt;stroke-linejoin:bevel;stroke-miterlimit:10;fill-opacity:1" />
    <path
       id="path8013"
       d="M 336.46875,218.75 C 336.17175,218.75 335.90625,218.9925 335.90625,219.3125 C 335.90625,219.6325 336.17174,219.90625 336.46875,219.90625 C 336.76575,219.90625 336.99999,219.6325 337,219.3125 C 337,218.9925 336.76574,218.75 336.46875,218.75 z "
       style="fill:white;fill-rule:evenodd;stroke-width:0;stroke-linecap:butt;stroke-linejoin:bevel;stroke-miterlimit:10;fill-opacity:1;stroke:none" />
  </g>
  <g
     id="g8110">
    <path
       id="path8097"
       d="M 514.625,213.53125 C 506.08725,213.53125 498.22504,216.3503 491.875,221.125 C 491.38654,221.49228 490.90744,221.86007 490.4375,222.25 C 487.14795,224.97948 484.31902,228.25569 482.09375,231.9375 C 481.77585,232.46347 481.48048,233.0203 481.1875,233.5625 C 478.25765,238.98453 476.59375,245.17719 476.59375,251.78125 C 476.59375,264.98937 483.25107,276.65442 493.375,283.53125 C 493.8812,283.87509 494.38312,284.1804 494.90625,284.5 C 500.66068,288.01556 507.40075,290.0625 514.625,290.0625 C 535.64,290.0625 552.68752,272.91426 552.6875,251.78125 C 552.6875,230.64825 535.64,213.53125 514.625,213.53125 z "
       style="fill:#404040;fill-rule:evenodd;stroke-width:0;stroke-linecap:butt;stroke-linejoin:bevel;stroke-miterlimit:10;fill-opacity:1" />
    <path
       id="path8085"
       d="M 512.125,214.78125 C 496.71644,214.78125 483.76343,225.37655 480.09375,239.71875 C 479.95784,240.24994 479.82887,240.77138 479.71875,241.3125 C 479.27828,243.47696 479.0625,245.73587 479.0625,248.03125 C 479.0625,250.90062 479.41418,253.68772 480.09375,256.34375 C 480.22966,256.87496 480.37023,257.38567 480.53125,257.90625 C 484.71775,271.44144 497.28712,281.28126 512.125,281.28125 C 530.387,281.28125 545.18748,266.39525 545.1875,248.03125 C 545.1875,229.66825 530.38699,214.78125 512.125,214.78125 z "
       style="fill:gray;stroke:none;stroke-width:5.51130009;stroke-linecap:butt;stroke-linejoin:miter;stroke-miterlimit:10;fill-opacity:1" />
    <path
       id="path8011"
       d="M 495.84375,227.3125 C 494.88675,227.3125 494.12499,228.1525 494.125,229.1875 C 494.125,230.2225 494.88675,231.09376 495.84375,231.09375 C 496.80075,231.09375 497.59374,230.2225 497.59375,229.1875 C 497.59375,228.1525 496.80075,227.3125 495.84375,227.3125 z "
       style="fill:white;fill-rule:evenodd;stroke-width:0;stroke-linecap:butt;stroke-linejoin:bevel;stroke-miterlimit:10;fill-opacity:1;stroke:none" />
  </g>
  <g
     id="g8057">
    <path
       id="path434"
       d="M 583.625,283.53125 C 582.34356,283.53125 581.06053,283.59126 579.8125,283.71875 C 579.18849,283.78249 578.58324,283.87431 577.96875,283.96875 C 569.36582,285.29093 561.71847,289.56134 556.125,295.75 C 555.72547,296.19205 555.34709,296.66399 554.96875,297.125 C 549.67193,303.5791 546.46875,311.85506 546.46875,320.875 C 546.46875,341.492 563.12202,358.18749 583.625,358.1875 C 604.129,358.1875 620.74999,341.49199 620.75,320.875 C 620.75,300.258 604.12902,283.53126 583.625,283.53125 z "
       style="fill:#b00000;fill-rule:evenodd;stroke-width:0;stroke-linecap:butt;stroke-linejoin:bevel;stroke-miterlimit:10;stroke:none;fill-opacity:1" />
    <path
       id="path758"
       d="M 581.15625,284.75 C 563.34425,284.75 548.90627,299.27351 548.90625,317.1875 C 548.90625,335.1025 563.34427,349.62499 581.15625,349.625 C 598.96925,349.625 613.40627,335.10251 613.40625,317.1875 C 613.40625,299.2735 598.96927,284.74999 581.15625,284.75 z "
       style="fill:#e10000;stroke:none;stroke-width:2.55754995;stroke-linecap:butt;stroke-linejoin:miter;stroke-miterlimit:10;fill-opacity:1" />
    <path
       id="path8005"
       d="M 565.28125,297 C 564.34825,297 563.59378,297.80049 563.59375,298.8125 C 563.59375,299.8245 564.34824,300.65624 565.28125,300.65625 C 566.21525,300.65625 566.96872,299.82449 566.96875,298.8125 C 566.96875,297.8005 566.21524,296.99999 565.28125,297 z "
       style="fill:white;fill-rule:evenodd;stroke-width:0;stroke-linecap:butt;stroke-linejoin:bevel;stroke-miterlimit:10;fill-opacity:1;stroke:none" />
  </g>
  <g
     id="g8202">
    <path
       id="path8184"
       d="M 504.6875,362.875 C 490.5905,362.875 479.15625,374.35524 479.15625,388.53125 C 479.15625,402.70725 490.59049,414.18749 504.6875,414.1875 C 518.7855,414.1875 530.21875,402.70724 530.21875,388.53125 C 530.21875,374.35525 518.78549,362.87499 504.6875,362.875 z "
       style="fill:#8ecdf4;fill-rule:evenodd;stroke-width:0;stroke-linecap:butt;stroke-linejoin:bevel;stroke-miterlimit:10;fill-opacity:1" />
    <path
       id="path8136"
       d="M 501.875,363.71875 C 490.15912,364.31624 480.84375,374.07178 480.84375,386 C 480.84375,388.3085 481.19574,390.53037 481.84375,392.625 C 481.95175,392.97411 482.06312,393.34597 482.1875,393.6875 C 483.68001,397.78582 486.33463,401.30592 489.75,403.875 C 490.31923,404.30318 490.89037,404.6899 491.5,405.0625 C 494.85295,407.1118 498.79044,408.3125 503,408.3125 C 515.246,408.3125 525.18751,398.312 525.1875,386 C 525.1875,373.687 515.246,363.71874 503,363.71875 C 502.61731,363.71875 502.25293,363.69948 501.875,363.71875 z "
       style="fill:#aee0ff;fill-opacity:1;stroke:none;stroke-width:1.71899998;stroke-linecap:butt;stroke-linejoin:bevel;stroke-miterlimit:10" />
    <path
       id="path7997"
       d="M 492.09375,372.125 C 491.45275,372.125 490.9375,372.679 490.9375,373.375 C 490.9375,374.07 491.45275,374.65626 492.09375,374.65625 C 492.73375,374.65625 493.25,374.07 493.25,373.375 C 493.25,372.679 492.73375,372.12499 492.09375,372.125 z "
       style="fill:white;fill-opacity:1;fill-rule:evenodd;stroke:none;stroke-width:0;stroke-linecap:butt;stroke-linejoin:bevel;stroke-miterlimit:10" />
  </g>
  <g
     id="g8280">
    <path
       id="path963"
       d="M 370.9172,324.2831 L 375.4292,323.2791 L 379.9372,321.7751 L 383.4442,319.2711 L 386.4482,316.7681 L 389.4562,313.7601 L 392.9602,311.2561 L 395.9682,309.7521 L 398.9722,308.7521 L 401.9802,307.7481 L 405.9872,307.2481 L 409.9952,307.7481 L 414.5032,308.2521 L 419.0112,308.7521 L 422.5192,309.7521 L 426.5262,311.2561 L 430.0302,313.2601 L 434.0382,316.2681 L 436.5462,318.2711 L 439.5502,321.7751 L 442.0542,324.7831 L 444.5622,328.7911 L 446.5662,332.2951 L 448.5692,336.8071 L 449.5692,339.8101 L 451.0732,344.8221 L 451.5732,348.8301 L 452.0732,354.3381 L 452.0732,357.8461 L 452.0732,364.8571 L 451.5732,371.3731 L 451.0732,376.8811 L 450.0692,382.3921 L 449.0692,386.9001 L 447.5662,391.4081 L 446.0622,395.9201 L 444.5622,399.9281 L 442.5582,404.4351 L 440.0502,409.9471 L 437.5462,414.4551 L 435.0422,418.9631 L 432.0342,422.4711 L 429.5302,425.4751 L 425.5232,430.4861 L 422.0192,435.4941 L 417.5072,440.5021 L 414.0032,445.0141 L 408.9912,450.5211 L 403.4802,455.0331 L 394.4642,459.5411 L 386.9482,463.0491 L 380.9372,463.5491 L 375.9292,463.5491 L 371.4212,463.0491 L 367.4132,461.5451 L 363.4052,461.0451 L 359.3982,461.0451 L 353.3862,462.0451 L 347.8742,461.5451 L 344.3662,461.0451 L 339.3592,459.0411 L 336.3552,457.5371 L 331.3432,452.5251 L 320.3232,437.9981 L 315.8122,432.4901 L 312.3082,427.4781 L 309.3002,423.4711 L 306.7962,419.4631 L 303.2882,414.9551 L 300.2842,410.4471 L 297.2762,406.4391 L 294.7732,401.4281 L 293.2692,397.4201 L 291.2652,391.9121 L 289.7652,386.4001 L 288.2612,381.8921 L 287.2572,377.3851 L 286.7572,372.3731 L 286.7572,368.3651 L 286.7572,362.3531 L 287.2572,357.8461 L 287.7612,352.8381 L 288.7612,347.3261 L 290.2652,342.8181 L 291.2652,338.8101 L 293.7732,334.2991 L 295.7762,330.7951 L 298.7802,326.7871 L 302.7882,322.7791 L 305.7962,319.7711 L 309.8042,316.7681 L 314.3122,313.7601 L 318.8192,311.2561 L 323.8272,309.2521 L 328.3392,308.2521 L 331.8432,307.7481 L 335.8512,307.7481 L 340.8622,308.2521 L 345.3702,309.2521 L 348.3742,310.2561 L 350.8822,311.7561 L 353.8862,313.7601 L 356.8942,316.7681 L 359.8982,319.2711 L 362.9052,321.7751 L 365.9092,323.2791 L 370.9172,324.2831"
       style="fill:#7f7fbf;fill-rule:evenodd;stroke-width:0;stroke-linecap:butt;stroke-linejoin:bevel;stroke-miterlimit:10" />
    <path
       id="path967"
       d="M 370.9172,324.2831 L 375.4292,323.2791 L 379.9372,321.7751 L 383.4442,319.2711 L 386.4482,316.7681 L 389.4562,313.7601 L 392.9602,311.2561 L 395.9682,309.7521 L 398.9722,308.7521 L 401.9802,307.7481 L 405.9872,307.2481 L 409.9952,307.7481 L 414.5032,308.2521 L 419.0112,308.7521 L 422.5192,309.7521 L 426.5262,311.2561 L 430.0302,313.2601 L 434.0382,316.2681 L 436.5462,318.2711 L 439.5502,321.7751 L 442.0542,324.7831 L 444.5622,328.7911 L 446.5662,332.2951 L 448.5692,336.8071 L 449.5692,339.8101 L 451.0732,344.8221 L 451.5732,348.8301 L 452.0732,354.3381 L 452.0732,357.8461 L 452.0732,364.8571 L 451.5732,371.3731 L 451.0732,376.8811 L 450.0692,382.3921 L 449.0692,386.9001 L 447.5662,391.4081 L 446.0622,395.9201 L 444.5622,399.9281 L 442.5582,404.4351 L 440.0502,409.9471 L 437.5462,414.4551 L 435.0422,418.9631 L 432.0342,422.4711 L 429.5302,425.4751 L 425.5232,430.4861 L 422.0192,435.4941 L 417.5072,440.5021 L 414.0032,445.0141 L 408.9912,450.5211 L 403.4802,455.0331 L 394.4642,459.5411 L 386.9482,463.0491 L 380.9372,463.5491 L 375.9292,463.5491 L 371.4212,463.0491 L 367.4132,461.5451 L 363.4052,461.0451 L 359.3982,461.0451 L 353.3862,462.0451 L 347.8742,461.5451 L 344.3662,461.0451 L 339.3592,459.0411 L 336.3552,457.5371 L 331.3432,452.5251 L 320.3232,437.9981 L 315.8122,432.4901 L 312.3082,427.4781 L 309.3002,423.4711 L 306.7962,419.4631 L 303.2882,414.9551 L 300.2842,410.4471 L 297.2762,406.4391 L 294.7732,401.4281 L 293.2692,397.4201 L 291.2652,391.9121 L 289.7652,386.4001 L 288.2612,381.8921 L 287.2572,377.3851 L 286.7572,372.3731 L 286.7572,368.3651 L 286.7572,362.3531 L 287.2572,357.8461 L 287.7612,352.8381 L 288.7612,347.3261 L 290.2652,342.8181 L 291.2652,338.8101 L 293.7732,334.2991 L 295.7762,330.7951 L 298.7802,326.7871 L 302.7882,322.7791 L 305.7962,319.7711 L 309.8042,316.7681 L 314.3122,313.7601 L 318.8192,311.2561 L 323.8272,309.2521 L 328.3392,308.2521 L 331.8432,307.7481 L 335.8512,307.7481 L 340.8622,308.2521 L 345.3702,309.2521 L 348.3742,310.2561 L 350.8822,311.7561 L 353.8862,313.7601 L 356.8942,316.7681 L 359.8982,319.2711 L 362.9052,321.7751 L 365.9092,323.2791 L 370.9172,324.2831"
       style="fill:#b00000;stroke:none;stroke-width:0.50095898;stroke-linecap:butt;stroke-linejoin:bevel;stroke-miterlimit:10;fill-opacity:1" />
    <path
       id="path923"
       d="M 308.8002,295.2251 L 312.3042,291.7171 L 314.8082,289.7131 L 317.8162,288.7091 L 320.8192,287.7091 L 324.3272,288.2091 L 327.3352,289.7131 L 329.8392,291.2171 L 331.8432,294.2211 L 334.8472,297.7281 L 337.8552,300.7321 L 342.3622,302.7361 L 345.3662,304.2401 L 348.8742,304.7401 L 353.3822,304.7401 L 358.8942,304.7401 L 363.4012,304.7401 L 367.9092,303.7401 L 371.9172,302.2361 L 374.9252,301.7361 L 375.9252,301.7361 L 374.9252,291.2171 L 373.4212,286.7051 L 371.9172,283.7011 L 369.4132,279.6931 L 366.9092,277.6891 L 363.9052,275.6851 L 359.3942,274.1821 L 351.8822,272.6821 L 344.3662,272.6821 L 338.8552,273.6821 L 333.8472,274.6821 L 328.8352,276.6851 L 324.3272,278.6891 L 319.8192,281.6971 L 316.3122,285.2051 L 312.8042,288.7091 L 308.8002,295.2251"
       style="fill:#0a0;stroke:none;stroke-width:0.50095898;stroke-linecap:butt;stroke-linejoin:bevel;stroke-miterlimit:10;fill-opacity:1" />
    <path
       id="path932"
       d="M 331.34375 281.6875 L 325.34375 282.6875 L 321.3125 284.1875 L 317.3125 286.71875 L 313.8125 289.21875 L 308.8125 295.21875 L 312.3125 291.71875 L 314.8125 289.71875 L 317.3125 288.71875 L 320.8125 287.71875 L 324.3125 288.21875 L 327.34375 289.71875 L 329.34375 291.21875 L 331.34375 294.21875 L 334.84375 297.71875 L 337.84375 300.71875 L 342.375 302.75 L 345.375 304.25 L 348.875 304.75 L 353.375 304.75 L 358.40625 304.75 L 363.40625 304.75 L 367.90625 303.75 L 371.90625 302.25 L 374.4375 301.75 L 375.9375 301.75 L 373.90625 299.21875 L 372.40625 297.21875 L 369.90625 294.71875 L 365.90625 291.71875 L 361.90625 288.71875 L 357.375 286.21875 L 352.875 284.6875 L 347.875 283.6875 L 342.875 282.6875 L 337.84375 281.6875 L 331.34375 281.6875 z "
       style="fill:#008200;fill-rule:evenodd;stroke-width:0;stroke-linecap:butt;stroke-linejoin:bevel;stroke-miterlimit:10;fill-opacity:0.84659094" />
    <path
       id="path945"
       d="M 365.4052,328.2871 L 364.9052,323.2751 L 365.9092,317.2641 L 366.9092,312.7561 L 368.9132,307.7481 L 370.9172,304.2401 L 373.4212,300.2321 L 376.9292,296.2251 L 385.9442,300.2321 L 382.9412,303.2361 L 378.4332,308.2481 L 375.9252,312.7561 L 373.9212,317.2641 L 371.9172,322.7751 L 371.4172,328.2871 L 365.4052,328.2871"
       style="fill:#875e00;fill-rule:evenodd;stroke-width:0;stroke-linecap:butt;stroke-linejoin:miter;stroke-miterlimit:10;fill-opacity:1" />
    <path
       id="path954"
       d="M 370.4172,328.2871 L 370.9172,324.7791 L 371.9172,319.2681 L 373.9212,313.2561 L 375.4252,309.2481 L 377.9292,304.7401 L 380.4372,301.2321 L 382.4412,298.7281 L 385.9442,300.2321 L 382.9412,303.2361 L 378.9332,308.2481 L 375.9252,312.7561 L 373.9212,317.2641 L 372.4212,322.7751 L 371.4172,328.2871 L 370.4172,328.2871"
       style="fill:#654700;fill-rule:evenodd;stroke-width:0;stroke-linecap:butt;stroke-linejoin:miter;stroke-miterlimit:10;fill-opacity:1" />
    <path
       id="path976"
       d="M 403.28125 307.25 L 399.40625 307.71875 L 396.53125 308.6875 L 393.625 309.65625 L 390.71875 311.125 L 387.34375 313.53125 L 384.4375 316.4375 L 381.53125 318.84375 L 378.15625 321.25 L 373.8125 322.71875 L 369.4375 323.6875 L 364.625 322.71875 L 361.71875 321.25 L 358.8125 318.84375 L 355.90625 316.4375 L 353.03125 313.53125 L 350.125 311.59375 L 347.71875 310.15625 L 344.8125 309.1875 L 340.46875 308.21875 L 335.625 307.71875 L 331.75 307.71875 L 328.375 308.21875 L 324.03125 309.1875 L 319.1875 311.125 L 314.84375 313.53125 L 310.5 316.4375 L 306.625 319.34375 L 303.71875 322.21875 L 299.84375 326.09375 L 296.96875 329.96875 L 295.03125 333.34375 L 292.59375 337.6875 L 291.65625 341.5625 L 290.1875 345.90625 L 289.21875 351.21875 L 288.75 356.0625 L 288.25 360.40625 L 288.25 366.21875 L 288.25 370.0625 L 288.75 374.90625 L 289.71875 379.25 L 291.15625 383.59375 L 292.59375 388.9375 L 294.53125 394.25 L 296 398.09375 L 298.40625 402.9375 L 301.3125 406.8125 L 304.21875 411.15625 L 307.59375 415.5 L 310 419.375 L 312.90625 423.25 L 316.28125 428.0625 L 320.625 433.375 L 331.28125 447.40625 L 336.09375 452.25 L 339 453.6875 L 343.84375 455.625 L 347.21875 456.09375 L 352.53125 456.59375 L 358.34375 455.625 L 362.1875 455.625 L 366.0625 456.09375 L 369.9375 457.5625 L 374.28125 458.03125 L 379.125 458.03125 L 384.90625 457.5625 L 392.15625 454.15625 L 400.875 449.8125 L 406.1875 445.46875 L 411.03125 440.15625 L 414.40625 435.8125 L 418.75 430.96875 L 422.125 426.125 L 426 421.3125 L 428.40625 418.40625 L 431.3125 415.03125 L 433.71875 410.6875 L 436.15625 406.3125 L 438.5625 401 L 440.5 396.65625 L 441.9375 392.78125 L 443.40625 388.4375 L 444.84375 384.09375 L 445.8125 379.75 L 446.78125 374.4375 L 447.25 369.09375 L 447.75 362.8125 L 447.75 356.0625 L 447.75 352.6875 L 447.25 347.375 L 446.78125 343.5 L 445.34375 338.65625 L 444.375 335.75 L 442.4375 331.40625 L 440.5 328.03125 L 438.09375 324.15625 L 435.65625 321.25 L 432.75 317.875 L 430.34375 315.9375 L 426.46875 313.03125 L 423.09375 311.125 L 419.21875 309.65625 L 415.84375 308.6875 L 411.5 308.21875 L 407.15625 307.71875 L 403.28125 307.25 z "
       style="fill:#e10000;fill-rule:evenodd;stroke-width:0;stroke-linecap:butt;stroke-linejoin:bevel;stroke-miterlimit:10;fill-opacity:1" />
    <path
       id="path7999"
       d="M 312.0625,328.28125 C 310.5425,328.28125 309.3125,329.51125 309.3125,331.03125 C 309.3125,332.55025 310.5425,333.8125 312.0625,333.8125 C 313.5815,333.8125 314.81251,332.55025 314.8125,331.03125 C 314.8125,329.51125 313.5815,328.28124 312.0625,328.28125 z "
       style="fill:white;fill-rule:evenodd;stroke-width:0;stroke-linecap:butt;stroke-linejoin:bevel;stroke-miterlimit:10;fill-opacity:1;stroke:none" />
  </g>
</svg>
