<?xml version="1.0" encoding="UTF-8" standalone="no"?>
<!-- Created with Inkscape (http://www.inkscape.org/) -->
<svg
   xmlns:dc="http://purl.org/dc/elements/1.1/"
   xmlns:cc="http://web.resource.org/cc/"
   xmlns:rdf="http://www.w3.org/1999/02/22-rdf-syntax-ns#"
   xmlns:svg="http://www.w3.org/2000/svg"
   xmlns="http://www.w3.org/2000/svg"
   xmlns:xlink="http://www.w3.org/1999/xlink"
   xmlns:sodipodi="http://sodipodi.sourceforge.net/DTD/sodipodi-0.dtd"
   xmlns:inkscape="http://www.inkscape.org/namespaces/inkscape"
   width="150"
   height="170"
   id="svg2"
   sodipodi:version="0.32"
   inkscape:version="0.45.1"
   version="1.0"
   sodipodi:docbase="/home/andre/Fun/recipes"
   sodipodi:docname="CoverLogo.svg"
   inkscape:export-filename="CoverLogo.png"
   inkscape:export-xdpi="76"
   inkscape:export-ydpi="76"
   inkscape:output_extension="org.inkscape.output.svg.inkscape">
  <defs
     id="defs4">
    <linearGradient
       id="linearGradient3643">
      <stop
         style="stop-color:#7f1c21;stop-opacity:1.0000000;"
         offset="0.0000000"
         id="stop3645" />
      <stop
         style="stop-color:#b0161d;stop-opacity:1.0000000;"
         offset="1.0000000"
         id="stop3647" />
    </linearGradient>
    <linearGradient
       id="linearGradient5832">
      <stop
         style="stop-color:#000000;stop-opacity:1.0000000;"
         offset="0.0000000"
         id="stop5834" />
      <stop
         style="stop-color:#380c0e;stop-opacity:0.0000000;"
         offset="1.0000000"
         id="stop5836" />
    </linearGradient>
    <linearGradient
       id="linearGradient6590">
      <stop
         style="stop-color:#c04958;stop-opacity:1.0000000;"
         offset="0.0000000"
         id="stop6592" />
      <stop
         style="stop-color:#be4656;stop-opacity:0.74489796;"
         offset="0.50000000"
         id="stop6598" />
      <stop
         style="stop-color:#bd4253;stop-opacity:0.0000000;"
         offset="1.0000000"
         id="stop6594" />
    </linearGradient>
    <linearGradient
       id="linearGradient8080">
      <stop
         style="stop-color:#420202;stop-opacity:1;"
         offset="0"
         id="stop8082" />
      <stop
         style="stop-color:#420202;stop-opacity:0;"
         offset="1"
         id="stop8084" />
    </linearGradient>
    <linearGradient
       id="linearGradient8822">
      <stop
         style="stop-color:#fefefe;stop-opacity:1;"
         offset="0"
         id="stop8824" />
      <stop
         style="stop-color:#fefefe;stop-opacity:0;"
         offset="1"
         id="stop8826" />
    </linearGradient>
    <linearGradient
       id="linearGradient13971">
      <stop
         style="stop-color:#070001;stop-opacity:1.0000000;"
         offset="0.0000000"
         id="stop13973" />
      <stop
         style="stop-color:#620916;stop-opacity:1.0000000;"
         offset="1.0000000"
         id="stop13975" />
    </linearGradient>
    <linearGradient
       id="linearGradient16293">
      <stop
         style="stop-color:#b8a718;stop-opacity:0.44705883;"
         offset="0.0000000"
         id="stop16295" />
      <stop
         style="stop-color:#e9e742;stop-opacity:0.22448979;"
         offset="1.0000000"
         id="stop16297" />
    </linearGradient>
    <linearGradient
       id="linearGradient16301">
      <stop
         style="stop-color:#e1e899;stop-opacity:1.0000000;"
         offset="0.0000000"
         id="stop16303" />
      <stop
         style="stop-color:#f7fadb;stop-opacity:1.0000000;"
         offset="1.0000000"
         id="stop16305" />
    </linearGradient>
    <linearGradient
       id="linearGradient16331">
      <stop
         style="stop-color:#b87018;stop-opacity:0.44705883;"
         offset="0.0000000"
         id="stop16333" />
      <stop
         style="stop-color:#e9bd42;stop-opacity:0.22352941;"
         offset="1.0000000"
         id="stop16335" />
    </linearGradient>
    <linearGradient
       id="linearGradient18595">
      <stop
         style="stop-color:#e2e99a;stop-opacity:0.61224490;"
         offset="0.0000000"
         id="stop18597" />
      <stop
         style="stop-color:#e8e99a;stop-opacity:1.0000000;"
         offset="0.50000000"
         id="stop18601" />
      <stop
         style="stop-color:#e5ef8b;stop-opacity:1.0000000;"
         offset="1.0000000"
         id="stop18599" />
    </linearGradient>
    <linearGradient
       inkscape:collect="always"
       xlink:href="#linearGradient3643"
       id="linearGradient8406"
       gradientUnits="userSpaceOnUse"
       x1="89.084457"
       y1="139.21457"
       x2="82.966072"
       y2="60.822758" />
    <radialGradient
       inkscape:collect="always"
       xlink:href="#linearGradient5832"
       id="radialGradient8408"
       gradientUnits="userSpaceOnUse"
       gradientTransform="matrix(2.111825,-9.891897e-2,1.849545e-2,0.39486,-99.08371,102.6595)"
       cx="86.173874"
       cy="177.76193"
       fx="86.173874"
       fy="177.76193"
       r="34.792561" />
    <radialGradient
       inkscape:collect="always"
       xlink:href="#linearGradient8080"
       id="radialGradient8410"
       gradientUnits="userSpaceOnUse"
       gradientTransform="matrix(2.284827,0.320645,-0.134288,0.9569,-65.80743,-15.18181)"
       cx="61.331074"
       cy="96.750336"
       fx="61.331074"
       fy="96.750336"
       r="28.270758" />
    <radialGradient
       inkscape:collect="always"
       xlink:href="#linearGradient8822"
       id="radialGradient8412"
       gradientUnits="userSpaceOnUse"
       gradientTransform="matrix(1.864309,-0.111884,2.142618e-2,0.357021,-50.5891,48.78081)"
       cx="62.484726"
       cy="67.062752"
       fx="62.484726"
       fy="67.062752"
       r="42.887432" />
    <linearGradient
       inkscape:collect="always"
       xlink:href="#linearGradient13971"
       id="linearGradient8414"
       gradientUnits="userSpaceOnUse"
       x1="80.451797"
       y1="40.503368"
       x2="83.511337"
       y2="42.510963" />
    <radialGradient
       inkscape:collect="always"
       xlink:href="#linearGradient6590"
       id="radialGradient8416"
       gradientUnits="userSpaceOnUse"
       gradientTransform="matrix(1.974909,-0.75203,0.664289,1.744492,-132.9643,-72.54759)"
       cx="40.423332"
       cy="140.83504"
       fx="40.423332"
       fy="140.83504"
       r="18.794815" />
    <radialGradient
       inkscape:collect="always"
       xlink:href="#linearGradient8822"
       id="radialGradient8418"
       gradientUnits="userSpaceOnUse"
       gradientTransform="matrix(0.396859,7.06019e-2,-2.777794e-2,0.156142,35.79646,52.88718)"
       cx="48.50449"
       cy="65.67099"
       fx="48.50449"
       fy="65.67099"
       r="42.887432" />
    <radialGradient
       inkscape:collect="always"
       xlink:href="#linearGradient13971"
       id="radialGradient8420"
       gradientUnits="userSpaceOnUse"
       gradientTransform="matrix(-1.633335,-1.061337,0.908849,-1.398664,195.7418,172.8886)"
       cx="86.065315"
       cy="33.995708"
       fx="86.065315"
       fy="33.995708"
       r="2.7279859" />
    <linearGradient
       inkscape:collect="always"
       xlink:href="#linearGradient16301"
       id="linearGradient8422"
       gradientUnits="userSpaceOnUse"
       gradientTransform="translate(-192.2522,-79.49671)"
       x1="286.4371"
       y1="196.73601"
       x2="307.3588"
       y2="183.21617" />
    <radialGradient
       inkscape:collect="always"
       xlink:href="#linearGradient16293"
       id="radialGradient8424"
       gradientUnits="userSpaceOnUse"
       gradientTransform="matrix(0.367168,0.483351,-1.225841,0.931188,130.0035,-127.2121)"
       cx="256.1087"
       cy="103.76028"
       fx="256.1087"
       fy="103.76028"
       r="8.1621428" />
    <radialGradient
       inkscape:collect="always"
       xlink:href="#linearGradient16293"
       id="radialGradient8426"
       gradientUnits="userSpaceOnUse"
       gradientTransform="matrix(1.58392,0.722404,-0.310992,0.827798,-272.8859,-158.8299)"
       cx="259.35349"
       cy="121.60902"
       fx="259.35349"
       fy="121.60902"
       r="8.1621428" />
    <radialGradient
       inkscape:collect="always"
       xlink:href="#linearGradient16293"
       id="radialGradient8428"
       gradientUnits="userSpaceOnUse"
       gradientTransform="matrix(1.161036,0,0,2.279391,-202.87,-145.6333)"
       cx="288.28595"
       cy="114.64095"
       fx="288.28595"
       fy="114.64095"
       r="8.1621428" />
    <radialGradient
       inkscape:collect="always"
       xlink:href="#linearGradient16293"
       id="radialGradient8430"
       gradientUnits="userSpaceOnUse"
       gradientTransform="matrix(0.372615,0.437996,-0.245668,0.208997,46.3635,-21.87512)"
       cx="280.54092"
       cy="120.56979"
       fx="280.54092"
       fy="120.56979"
       r="8.1621428" />
    <linearGradient
       inkscape:collect="always"
       xlink:href="#linearGradient18595"
       id="linearGradient8432"
       gradientUnits="userSpaceOnUse"
       gradientTransform="translate(-192.2522,-79.49671)"
       x1="315.39673"
       y1="181.11861"
       x2="326.10043"
       y2="182.88014" />
    <radialGradient
       inkscape:collect="always"
       xlink:href="#linearGradient16331"
       id="radialGradient8434"
       gradientUnits="userSpaceOnUse"
       gradientTransform="matrix(-0.377055,-0.358713,1.025253,-1.077677,149.5455,288.5998)"
       cx="294.08792"
       cy="96.092392"
       fx="294.08792"
       fy="96.092392"
       r="8.1621428" />
    <radialGradient
       inkscape:collect="always"
       xlink:href="#linearGradient16331"
       id="radialGradient8436"
       gradientUnits="userSpaceOnUse"
       gradientTransform="matrix(-0.14894,-0.582007,1.808962,-0.462926,29.57558,296.716)"
       cx="251.51294"
       cy="79.891762"
       fx="251.51294"
       fy="79.891762"
       r="8.1621428" />
  </defs>
  <sodipodi:namedview
     id="base"
     pagecolor="#ffffff"
     bordercolor="#666666"
     borderopacity="1.0"
     gridtolerance="50"
     guidetolerance="50"
     objecttolerance="50"
     inkscape:pageopacity="0.0"
     inkscape:pageshadow="2"
     inkscape:zoom="3.463747"
     inkscape:cx="71.868125"
     inkscape:cy="81.27037"
     inkscape:document-units="pt"
     inkscape:current-layer="logo"
     width="150px"
     height="170px"
     units="pt"
     showgrid="false"
     gridspacingx="1pt"
     gridspacingy="1pt"
     gridanglex="24pt"
     gridanglez="24pt"
     grid_units="pt"
     inkscape:grid-points="false"
     inkscape:window-width="1280"
     inkscape:window-height="777"
     inkscape:window-x="0"
     inkscape:window-y="0"
     showguides="true"
     inkscape:guide-bbox="false"
     inkscape:object-paths="false"
     inkscape:grid-bbox="false" />
  <metadata
     id="metadata7">
    <rdf:RDF>
      <cc:Work
         rdf:about="">
        <dc:format>image/svg+xml</dc:format>
        <dc:type
           rdf:resource="http://purl.org/dc/dcmitype/StillImage" />
      </cc:Work>
    </rdf:RDF>
  </metadata>
  <g
     inkscape:label="Logo"
     inkscape:groupmode="layer"
     id="logo"
     transform="translate(-112.51375,-140)">
    <g
       transform="matrix(0.4401807,0,0,0.4370144,130.34016,161.44754)"
       id="apple">
      <g
         id="apple-core"
         transform="matrix(2.276961,0,0,2.276961,-37.8774,-62.62277)">
        <path
           d="M 136.55048,70.280418 C 133.11092,65.706205 130.39582,59.63548 125.15659,57.035661 C 120.20153,54.576849 115.86223,50.35534 109.88948,50.247158 C 104.29221,50.145777 99.375315,52.438165 94.37057,54.27963 C 89.038001,56.241716 83.440226,56.876981 77.733019,57.073219 C 71.276357,57.295227 64.823598,57.644965 58.405744,57.301366 C 52.513046,56.985882 46.774255,58.566392 41.641132,61.35732 C 37.402972,63.661648 34.84386,67.776262 32.409351,71.672733 C 29.86717,75.741536 27.338667,80.092295 26.248662,84.778563 C 24.972137,90.266739 23.182185,95.863492 23.798208,101.60446 C 24.454498,107.7207 25.467981,113.80463 28.096923,119.46719 C 30.237262,124.07734 40.744235,144.90047 44.904687,149.74442 C 48.312037,153.71154 51.025906,157.85246 54.952491,161.37705 C 59.402046,165.37106 65.665028,164.91493 71.18827,164.23636 C 76.067308,165.83918 80.352636,168.75538 85.715837,169.24571 C 91.894237,169.81057 96.41566,165.40732 102.2595,165.45806 C 107.90309,166.6801 113.2702,165.3113 117.40739,161.56804 C 121.03523,158.28563 123.83457,154.00521 126.54779,149.94928 C 129.39126,145.69865 132.07312,141.19188 134.39743,136.48192 C 136.56085,132.098 140.20687,128.06554 140.06563,122.73743 C 139.83219,113.93089 141.80536,105.11465 142.2288,96.238528 C 142.51455,90.248744 140.7163,84.605923 139.74504,78.862081 C 139.22214,75.769778 138.49738,72.86956 136.55048,70.280418 z "
           id="apple-background"
           sodipodi:nodetypes="csssssssssssscscsssssss"
           style="fill:url(#linearGradient8406);fill-opacity:1;fill-rule:evenodd;stroke:none;stroke-width:1px;stroke-linecap:butt;stroke-linejoin:miter;stroke-opacity:1" />
        <path
           d="M 83.26825,142.22766 C 42.348044,138.56147 51.025906,157.85246 54.952491,161.37705 C 59.402046,165.37106 65.665028,164.91493 71.18827,164.23636 C 76.067308,165.83918 80.352636,168.75538 85.715837,169.24571 C 91.894237,169.81057 96.41566,165.40732 102.2595,165.45806 C 107.90309,166.6801 113.2702,165.3113 117.40739,161.56804 C 121.03523,158.28563 131.7164,140.64976 83.26825,142.22766 z "
           id="apple-shadow"
           sodipodi:nodetypes="cscscsc"
           style="fill:url(#radialGradient8408);fill-opacity:1;fill-rule:evenodd;stroke:none;stroke-width:1px;stroke-linecap:butt;stroke-linejoin:miter;stroke-opacity:1" />
        <path
           d="M 64.65804,122.37019 C 57.683592,105.59704 31.490663,106.7746 28.096923,119.46719 C 25.467981,113.80463 24.454498,107.7207 23.798208,101.60446 C 23.182185,95.863492 24.972137,90.266739 26.248662,84.778563 C 27.338667,80.092295 29.86717,75.741536 32.409351,71.672733 C 37.490285,70.416533 41.268549,70.521892 44.628256,71.97838 C 49.647946,74.154496 57.812298,78.536877 61.983808,78.8612 C 65.294919,78.898723 72.110369,75.802536 74.556434,75.600349 C 77.199838,75.381851 85.7047,75.105906 92.789314,75.397706 C 97.992627,78.094502 101.85583,82.66785 105.25473,87.324542 C 111.97501,94.460696 112.61835,106.00423 107.58762,114.25047 C 103.70038,121.9334 92.090837,125.37697 64.65804,122.37019 z "
           id="path1372"
           sodipodi:nodetypes="ccsscscscccc"
           style="fill:url(#radialGradient8410);fill-opacity:1;fill-rule:evenodd;stroke:none;stroke-width:1px;stroke-linecap:butt;stroke-linejoin:miter;stroke-opacity:1" />
        <path
           d="M 99.062863,54.139495 C 103.13604,52.806029 107.55697,52.43651 111.80937,52.848233 C 116.00673,53.15088 118.45335,56.716779 121.67168,58.836358 C 125.95009,60.820658 123.69449,65.747244 119.8938,66.586077 C 116.5847,67.794889 115.2289,71.271618 112.39284,73.138184 C 109.87082,75.226231 106.09047,76.366354 103.12225,74.514863 C 98.980152,73.095181 94.861696,75.778693 90.64052,75.175574 C 85.858863,75.120076 81.053029,74.943881 76.296615,75.555809 C 72.090905,74.357614 68.919013,78.590325 64.815319,78.613738 C 60.058488,79.334209 55.350188,77.575238 51.404488,75.053128 C 47.607551,73.690833 44.032185,70.238456 39.80485,70.988853 C 35.776812,72.279256 40.614448,67.847583 41.211554,66.395569 C 43.543503,63.099837 47.014806,60.101352 51.307544,60.297701 C 61.976179,59.826677 72.631522,58.734586 83.311404,58.679898 C 84.075882,58.675983 93.667998,57.240278 99.062863,54.139495 z "
           id="apple-top-hilight"
           sodipodi:nodetypes="cccccccccccccsc"
           style="fill:url(#radialGradient8412);fill-opacity:1;fill-rule:evenodd;stroke:none;stroke-width:1px;stroke-linecap:butt;stroke-linejoin:miter;stroke-opacity:1" />
        <path
           d="M 84.093452,31.072861 C 85.844467,31.565391 87.042903,33.017829 88.39281,34.136952 C 89.346712,35.223896 88.313495,36.710703 87.23335,37.227888 C 86.053118,38.071614 85.308465,39.353644 84.691832,40.632727 C 83.922195,41.728879 83.113858,42.806641 82.602153,44.054301 C 81.937358,45.269002 81.378692,46.565748 81.273905,47.96187 C 81.020499,49.463343 80.90082,50.849095 80.367712,52.256696 C 80.060638,53.584927 79.880453,56.073179 79.44462,57.374643 C 78.544183,57.898734 77.0417,58.15674 76.321621,57.210307 C 76.241299,54.8544 77.530245,50.617249 78.14327,48.346107 C 78.630242,46.353659 79.112585,44.335063 80.117608,42.527512 C 81.064983,40.693601 82.041363,38.832276 82.394983,36.77559 C 82.782299,35.330588 83.121007,33.868732 83.396174,32.402035 C 83.570981,31.930904 83.843125,31.505764 84.093452,31.072861 z "
           id="stem"
           sodipodi:nodetypes="cccccccccccccc"
           style="fill:url(#linearGradient8414);fill-opacity:1;fill-rule:evenodd;stroke:none;stroke-width:1px;stroke-linecap:butt;stroke-linejoin:miter;stroke-opacity:1" />
        <path
           d="M 28.096923,119.46719 C 30.237262,124.07734 40.744235,144.90047 44.904687,149.74442 C 48.312037,153.71154 51.025906,157.85246 54.952491,161.37705 C 65.080382,154.82558 66.636312,129.65045 64.933707,124.59973 C 56.225177,98.766142 25.467981,113.80463 28.096923,119.46719 z "
           id="apple-bottom-hilight"
           sodipodi:nodetypes="cscss"
           style="opacity:0.6373057;fill:url(#radialGradient8416);fill-opacity:1;fill-rule:evenodd;stroke:none;stroke-width:1px;stroke-linecap:butt;stroke-linejoin:miter;stroke-opacity:1" />
        <path
           d="M 62.70705,62.977431 C 58.199965,62.07508 53.577911,62.069449 49.043655,61.361883 C 46.690872,61.371587 44.130332,62.385578 42.989926,64.55836 C 42.122617,66.665768 43.531275,69.14913 45.566282,69.940482 C 47.523067,71.054062 49.643311,71.848494 51.587836,72.985176 C 55.603207,74.668564 60.886596,73.239253 63.067438,69.352852 C 64.110256,67.362223 63.820768,64.873035 62.70705,62.977431 z "
           id="apple-top-extralight"
           style="opacity:1;color:#000000;fill:url(#radialGradient8418);fill-opacity:1;fill-rule:evenodd;stroke:none;stroke-width:1px;stroke-linecap:butt;stroke-linejoin:miter;marker:none;marker-start:none;marker-mid:none;marker-end:none;stroke-miterlimit:4;stroke-dasharray:none;stroke-dashoffset:0;stroke-opacity:1;visibility:visible;display:inline;overflow:visible" />
        <path
           d="M 88.716583,34.607113 C 88.064135,33.577366 87.114176,32.789102 86.177549,32.029031 C 85.717542,31.475117 85.008249,31.069152 84.27375,31.102314 C 83.820604,31.118833 83.460984,31.502701 83.391978,31.937323 C 83.289976,32.729051 83.329265,33.54668 83.522498,34.322652 C 83.737967,35.206873 84.306025,36.028278 85.146655,36.416076 C 86.045471,36.880661 87.131739,37.047894 88.10387,36.720496 C 88.602231,36.159305 88.956144,35.358784 88.716583,34.607113 z "
           id="stem-end"
           style="fill:url(#radialGradient8420);fill-opacity:1;fill-rule:evenodd;stroke:none;stroke-width:1px;stroke-linecap:butt;stroke-linejoin:miter;stroke-opacity:1" />
      </g>
      <g
         id="apple-bite"
         transform="matrix(2.276961,0,0,2.276961,-37.8774,-62.62277)">
        <path
           d="M 136.4111,71.78284 C 133.52818,68.64791 128.12374,66.48856 125.1324,69.51466 C 122.74185,65.71449 114.6883,66.22501 111.52189,69.94498 C 107.38546,72.1282 112.68498,79.09328 106.33746,77.56404 C 102.00369,79.0106 98.477097,82.69044 98.387557,87.25146 C 93.105467,86.72944 88.508047,93.76814 92.227157,97.95725 C 93.995087,99.38492 92.955277,99.73649 91.525197,100.71531 C 89.384627,102.97263 87.527807,111.72479 92.124617,114.72683 C 89.861547,117.90751 88.856047,124.69307 93.809027,127.19904 C 91.705227,131.63679 95.286227,137.53796 100.73494,136.03206 C 104.19214,133.77417 104.89541,141.68981 109.37139,140.19325 C 113.92526,141.3752 119.2588,139.49583 121.03991,135.18154 C 126.50794,135.47642 131.71536,134.45782 135.5999,130.45896 C 138.76616,126.0648 139.65725,120.31599 136.92674,115.46333 C 136.9444,111.00113 140.77933,107.06919 139.49668,102.11395 C 142.40625,96.76931 140.07491,90.97641 139.65585,85.43788 C 139.69495,80.74621 139.59699,75.54498 136.4111,71.78284 z "
           id="apple-bite-background"
           sodipodi:nodetypes="ccccccccccccccccc"
           style="fill:url(#linearGradient8422);fill-opacity:1;fill-rule:evenodd;stroke:none;stroke-width:1px;stroke-linecap:butt;stroke-linejoin:miter;stroke-opacity:1" />
        <path
           d="M 105.35638,86.11102 C 101.90466,83.68047 98.991147,90.66011 95.074307,91.02116 C 91.178617,94.46772 96.808387,101.00251 100.00279,95.67099 C 103.45406,94.1977 109.36789,90.83636 105.68388,86.43098 L 105.35637,86.11102 L 105.35638,86.11102 z "
           id="apple-bite-texture-NW"
           style="opacity:1;color:#000000;fill:url(#radialGradient8424);fill-opacity:1;fill-rule:evenodd;stroke:none;stroke-width:1px;stroke-linecap:butt;stroke-linejoin:miter;marker:none;marker-start:none;marker-mid:none;marker-end:none;stroke-miterlimit:4;stroke-dasharray:none;stroke-dashoffset:0;stroke-opacity:1;visibility:visible;display:inline;overflow:visible" />
        <path
           d="M 93.693197,125.54296 C 93.576147,119.44941 101.50049,125.97285 101.94687,119.90444 C 105.65943,115.66046 102.81629,125.74601 107.07717,123.64694 C 112.79386,123.60023 105.71504,132.3448 112.13886,132.44017 C 116.46006,129.85049 122.21016,136.67418 116.45714,139.24792 C 112.35526,139.57336 107.31148,141.83576 103.53997,135.36644 C 100.41059,132.14556 97.996646,139.68121 94.682026,133.62099 C 93.733176,130.98685 95.103217,128.05304 93.693197,125.54296 z "
           id="apple-bite-texture-S"
           sodipodi:nodetypes="cccccccc"
           style="opacity:1;color:#000000;fill:url(#radialGradient8426);fill-opacity:1;fill-rule:evenodd;stroke:none;stroke-width:1px;stroke-linecap:butt;stroke-linejoin:miter;marker:none;marker-start:none;marker-mid:none;marker-end:none;stroke-miterlimit:4;stroke-dasharray:none;stroke-dashoffset:0;stroke-opacity:1;visibility:visible;display:inline;overflow:visible" />
        <path
           d="M 113.02121,93.969411 C 108.98105,93.998878 101.55622,97.031447 102.01795,102.7257 C 103.61147,105.57469 105.8043,114.23576 110.09996,110.15415 C 111.06774,107.38406 115.02497,104.34578 113.90916,109.73068 C 112.18827,113.49899 107.1128,119.75289 114.24989,121.10897 C 120.56412,122.61085 121.22285,112.70581 121.01283,108.17675 C 120.4786,102.75221 118.79973,95.994967 113.02121,93.969411 z "
           id="apple-bite-texture-C"
           style="opacity:0.83937839;color:#000000;fill:url(#radialGradient8428);fill-opacity:1;fill-rule:evenodd;stroke:none;stroke-width:1px;stroke-linecap:butt;stroke-linejoin:miter;marker:none;marker-start:none;marker-mid:none;marker-end:none;stroke-miterlimit:4;stroke-dasharray:none;stroke-dashoffset:0;stroke-opacity:1;visibility:visible;display:inline;overflow:visible" />
        <path
           d="M 125.62353,130.46929 C 122.04482,128.07206 121.62583,122.814 119.24368,120.31498 C 112.67875,122.88237 122.11922,127.42977 122.18193,131.4253 C 123.09229,132.46908 125.7985,132.35953 125.62353,130.46929 z "
           id="apple-bite-texture-SSE"
           style="opacity:0.74093263;color:#000000;fill:url(#radialGradient8430);fill-opacity:1;fill-rule:evenodd;stroke:none;stroke-width:1px;stroke-linecap:butt;stroke-linejoin:miter;marker:none;marker-start:none;marker-mid:none;marker-end:none;stroke-miterlimit:4;stroke-dasharray:none;stroke-dashoffset:0;stroke-opacity:1;visibility:visible;display:inline;overflow:visible" />
        <path
           d="M 137.76308,75.298 C 127.57945,81.08617 126.55774,88.923327 125.67319,91.416814 C 123.99167,96.156942 119.30555,110.27424 120.11672,115.7673 C 120.50499,118.39662 130.61058,127.33471 137.19909,125.76942 C 138.87816,121.91605 138.30527,120.45119 136.92674,115.46333 C 136.9444,111.00113 140.77933,107.06919 139.49668,102.11395 C 142.40625,96.76931 140.07491,90.97641 139.65585,85.43788 C 139.69495,80.74621 140.94897,79.06014 137.76308,75.298 z "
           id="apple-bite-texture-CE"
           sodipodi:nodetypes="cssccccc"
           style="opacity:0.90673577;fill:url(#linearGradient8432);fill-opacity:1;fill-rule:evenodd;stroke:none;stroke-width:1px;stroke-linecap:butt;stroke-linejoin:miter;stroke-opacity:1" />
        <path
           d="M 136.95068,76.643832 C 131.78927,78.382442 128.19357,82.081562 128.66178,87.753992 C 126.75587,91.214352 130.13759,91.959372 130.6411,88.115802 C 132.35158,83.561952 138.06965,83.000282 140.11466,79.337372 C 139.94811,77.866762 138.49141,76.426722 136.95068,76.643832 z "
           id="apple-bite-texture-NE"
           style="opacity:1;color:#000000;fill:url(#radialGradient8434);fill-opacity:1;fill-rule:evenodd;stroke:none;stroke-width:1px;stroke-linecap:butt;stroke-linejoin:miter;marker:none;marker-start:none;marker-mid:none;marker-end:none;stroke-miterlimit:4;stroke-dasharray:none;stroke-dashoffset:0;stroke-opacity:1;visibility:visible;display:inline;overflow:visible" />
        <path
           d="M 120.11672,115.7673 C 120.77821,118.43505 129.03459,120.31633 135.6231,118.75104 C 137.30217,114.89767 138.30527,120.45119 136.92674,115.46333 C 136.9444,111.00113 140.77933,107.06919 139.49668,102.11395 C 140.95146,99.44163 138.39699,105.85616 132.98157,109.275 C 127.56616,112.69384 119.44855,113.07259 120.11672,115.7673 z "
           id="apple-bite-texture-E"
           sodipodi:nodetypes="cccccs"
           style="opacity:1;color:#000000;fill:url(#radialGradient8436);fill-opacity:1;fill-rule:evenodd;stroke:none;stroke-width:1px;stroke-linecap:butt;stroke-linejoin:miter;marker:none;marker-start:none;marker-mid:none;marker-end:none;stroke-miterlimit:4;stroke-dasharray:none;stroke-dashoffset:0;stroke-opacity:1;visibility:visible;display:inline;overflow:visible" />
      </g>
    </g>
    <g
       transform="matrix(-0.5332878,0,0,0.5904871,240.51741,-108.50256)"
       id="flask">
      <path
         style="fill:#d7e9fc;fill-opacity:0.44117647;fill-rule:evenodd;stroke:#9fabb9;stroke-width:2.5;stroke-linecap:round;stroke-linejoin:round;stroke-miterlimit:4;stroke-opacity:1"
         id="flask-glass"
         d="M 95.59375,422.03125 L 106.21875,432.65625 C 106.21874,458.64051 106.21875,473.39155 106.21875,499.96875 C 99.13212,510.59867 57.7847,589.74311 35.34375,634.625 C 28.257141,648.7982 28.27633,666.51427 38.90625,680.6875 C 45.992863,691.31741 58.3677,694.875 70.78125,694.875 C 113.30094,694.875 155.82408,694.875 198.34375,694.875 C 210.75724,694.875 223.13205,691.31742 230.21875,680.6875 C 240.84866,666.51426 240.86785,648.79822 233.78125,634.625 C 213.70245,589.74309 190.0788,544.85064 170,499.96875 C 170,473.9845 170,458.6405 170,432.65625 L 180.28125,422.375 L 180.625,422.03125 L 95.59375,422.03125 z " />
      <path
         style="fill:#ffffff;fill-opacity:0.62941176;fill-rule:evenodd;stroke:none;stroke-width:1px;stroke-linecap:butt;stroke-linejoin:miter;stroke-opacity:1"
         sodipodi:nodetypes="cccccccccccccc"
         id="flask-hilight"
         d="M 157.5,432.36218 C 157.5,455.27885 157.5,478.19551 157.5,501.11218 C 180.05378,548.80806 202.71669,596.47263 225.2038,644.18702 C 231.49496,659.082 223.64792,676.44257 210.03911,684.07508 C 197.90571,692.21897 182.96085,689.06956 169.29755,689.63196 C 159.62959,689.63196 149.96162,689.63196 140.29365,689.63196 C 157.60246,687.40342 175.26429,686.98312 192.34119,683.54041 C 203.55709,680.03911 217.1829,673.79852 217.86803,660.25064 C 218.57317,645.78894 209.5017,633.55192 204.67603,620.48204 C 187.28403,580.69209 169.89201,540.90214 152.5,501.11218 C 152.5,478.19551 152.5,455.27885 152.5,432.36218 L 161.53736,423.27693 L 166.56928,423.27693 L 157.5,432.36218 z " />
      <path
         style="fill:#000000;fill-opacity:0.17624518;fill-rule:evenodd;stroke:none;stroke-width:1px;stroke-linecap:butt;stroke-linejoin:miter;stroke-opacity:1"
         sodipodi:nodetypes="cccccccccccccc"
         id="flash-shadow"
         d="M 112.17603,432.36218 C 112.17603,455.27885 112.17603,478.19551 112.17603,501.11218 C 89.62225,548.80806 62.48711,592.14779 40,639.86218 C 33.70884,654.75716 38.75,674.86218 51.25,683.61218 C 63.75,689.86218 60,688.61218 74.12848,690.25064 C 83.79644,690.25064 119.71441,689.63196 129.38238,689.63196 C 112.07357,687.40342 94.41174,686.98312 77.33484,683.54041 C 66.11894,680.03911 52.49313,673.79852 51.808,660.25064 C 51.10286,645.78894 60.17433,633.55192 65,620.48204 C 82.392,580.69209 99.78402,540.90214 117.17603,501.11218 C 117.17603,478.19551 117.17603,455.27885 117.17603,432.36218 L 108.13867,423.27693 L 103.10675,423.27693 L 112.17603,432.36218 z " />
    </g>
  </g>
</svg>
